<?xml version="1.0" encoding="UTF-8"?>
<svg version="1.1" xmlns="http://www.w3.org/2000/svg" width="447" height="447">
<path d="M0 0 C147.51 0 295.02 0 447 0 C447 147.51 447 295.02 447 447 C299.49 447 151.98 447 0 447 C0 299.49 0 151.98 0 0 Z " fill="#0C1A35" transform="translate(0,0)"/>
<path d="M0 0 C-1.19452789 3.23355922 -2.46939387 5.88834184 -4.5625 8.625 C-6.2752248 10.87136309 -7.08336142 12.25008426 -8 15 C14.44 15 36.88 15 60 15 C60 30.50174021 54.8696567 42.33393897 45 54 C44.51144531 54.6084375 44.02289063 55.216875 43.51953125 55.84375 C36.07546311 64.26377566 22.96954311 70.48540819 12 72 C9.89338777 72.04881638 7.78513761 72.04524241 5.6784668 71.99902344 C4.44666183 71.97700867 3.21485687 71.9549939 1.94572449 71.93231201 C-0.03254585 71.89620819 -0.03254585 71.89620819 -2.05078125 71.859375 C-5.59012598 71.82749159 -9.12956559 71.81408114 -12.66901875 71.79972458 C-16.35876938 71.78107229 -20.04543026 71.73909835 -23.73413086 71.64697266 C-27.32136105 71.55869012 -30.90406095 71.53485554 -34.49226952 71.55335236 C-36.50511107 71.54701871 -38.51739774 71.47442877 -40.52888489 71.40032959 C-46.96317182 71.3584042 -46.96317182 71.3584042 -52.47579575 74.29725647 C-56.25216905 78.62969855 -59.18155347 83.54466042 -61 89 C-43.18 89.33 -25.36 89.66 -7 90 C-7 109.73214286 -7 109.73214286 -11 120 C-11.66 120 -12.32 120 -13 120 C-13.185625 120.825 -13.37125 121.65 -13.5625 122.5 C-17.64130659 132.43100735 -27.53910715 139.62994048 -36.98046875 144.17578125 C-41.80489359 146.14474381 -45.74167152 147.24535532 -50.98266602 147.04907227 C-52.14149796 147.0140712 -53.3003299 146.97907013 -54.49427795 146.94300842 C-55.73495529 146.90122971 -56.97563263 146.85945099 -58.25390625 146.81640625 C-60.90955488 146.77335443 -63.56494413 146.73431608 -66.22070312 146.70117188 C-70.38791168 146.64763176 -74.54992594 146.57222736 -78.71411133 146.40014648 C-93.712581 145.22645341 -93.712581 145.22645341 -107.51004028 149.62667847 C-111.57693209 153.48397348 -114.3550774 157.89933909 -116.88288879 162.86912537 C-118.58008559 166.10650548 -120.6822712 168.96980506 -122.8125 171.9375 C-123.51503906 172.96746094 -124.21757812 173.99742187 -124.94140625 175.05859375 C-129.43495645 181.47916927 -134.2476827 187.65856251 -140 193 C-141.02480469 193.99773437 -141.02480469 193.99773437 -142.0703125 195.015625 C-164.81430729 216.51637892 -191.35404461 222.78320278 -221.64355469 222.140625 C-228.3278634 221.8605725 -234.54291376 220.75687506 -241 219 C-242.02222656 218.73316406 -243.04445313 218.46632813 -244.09765625 218.19140625 C-252.64849933 215.65657135 -260.28387524 211.38477568 -268 207 C-268.97066406 206.46503906 -269.94132812 205.93007813 -270.94140625 205.37890625 C-271.62074219 204.92386719 -272.30007813 204.46882812 -273 204 C-273 203.34 -273 202.68 -273 202 C-274.00546875 201.72542969 -274.00546875 201.72542969 -275.03125 201.4453125 C-279.30728422 199.363559 -282.19094678 196.24302645 -285.5 192.875 C-286.15097656 192.235625 -286.80195313 191.59625 -287.47265625 190.9375 C-291.22998147 187.15740311 -294.24223742 183.40504454 -296.87695312 178.76611328 C-297.94024931 176.94749523 -297.94024931 176.94749523 -299.50610352 175.51855469 C-301.2018423 173.7948261 -302.07368202 172.18303215 -303.12109375 170.0078125 C-303.49741943 169.22664062 -303.87374512 168.44546875 -304.26147461 167.640625 C-304.64956299 166.81046875 -305.03765137 165.9803125 -305.4375 165.125 C-306.03800171 163.84496094 -306.03800171 163.84496094 -306.65063477 162.5390625 C-312.98072197 148.77789072 -316.40266083 134.94492711 -316.25 119.75 C-316.24178223 118.74638428 -316.23356445 117.74276855 -316.22509766 116.70874023 C-315.78712402 87.38098931 -304.20286714 63.01381659 -283.3671875 42.39453125 C-268.28930404 28.19726492 -249.54070215 18.83768889 -229 16 C-228.505 15.505 -228.505 15.505 -228 15 C-226.10024855 14.9043196 -224.1968967 14.87980434 -222.29473877 14.88215637 C-220.43557327 14.88047958 -220.43557327 14.88047958 -218.53884888 14.87876892 C-217.15252674 14.88243422 -215.76620472 14.8861436 -214.37988281 14.88989258 C-212.92973836 14.89013456 -211.47959374 14.88985798 -210.02944946 14.88909912 C-206.8989942 14.88799042 -203.76855357 14.88943196 -200.63809967 14.89246559 C-195.68828764 14.89608846 -190.73855251 14.88697878 -185.78875732 14.87467957 C-184.95426473 14.87265764 -184.11977213 14.87063571 -183.25999188 14.86855251 C-181.55314882 14.86438359 -179.84630584 14.86018083 -178.13946295 14.85594499 C-166.6111596 14.82777279 -155.08302156 14.8076675 -143.5546875 14.82495117 C-135.78520638 14.83650442 -128.01606896 14.82693173 -120.2466495 14.79289359 C-116.13325444 14.77572324 -112.02047953 14.76947127 -107.9070816 14.789011 C-104.035888 14.80723225 -100.16576239 14.79763907 -96.29465866 14.76675415 C-94.87449075 14.76038464 -93.45423414 14.76425073 -92.0341301 14.77915001 C-84.68294566 15.16553332 -84.68294566 15.16553332 -78.09120941 12.61383629 C-76.56232385 10.81656577 -76.56232385 10.81656577 -75 8 C-74.34 8 -73.68 8 -73 8 C-72.77441406 7.4225 -72.54882812 6.845 -72.31640625 6.25 C-67.79499949 -1.47798306 -57.12906395 -6.0287299 -48.88671875 -8.6796875 C-32.04056711 -12.92759448 -13.83393683 -10.72398204 0 0 Z " fill="#64BA73" transform="translate(353,120)"/>
<path d="M0 0 C2.1576101 0.00560453 4.31522405 0.00987057 6.47283936 0.01286316 C12.11495756 0.02424449 17.75683916 0.05365309 23.39886475 0.0869751 C29.1708252 0.1178216 34.94282439 0.13139949 40.71484375 0.14648438 C52.01312402 0.17852988 63.31122973 0.22964392 74.609375 0.29296875 C71.4724388 5.80479335 68.18118884 11.13428274 64.671875 16.41796875 C64.15947266 17.20300781 63.64707031 17.98804688 63.11914062 18.796875 C60.27317234 23.08571665 57.39916468 26.76544825 53.609375 30.29296875 C50.7792351 33.52741435 49.15746797 36.31215825 47.609375 40.29296875 C46.619375 40.78796875 46.619375 40.78796875 45.609375 41.29296875 C45.279375 42.28296875 44.949375 43.27296875 44.609375 44.29296875 C43.619375 44.95296875 42.629375 45.61296875 41.609375 46.29296875 C40.08925463 48.54724147 40.08925463 48.54724147 38.609375 51.29296875 C37.88131476 52.56443628 37.15211962 53.83525452 36.421875 55.10546875 C35.82375 56.15734375 35.225625 57.20921875 34.609375 58.29296875 C33.949375 58.29296875 33.289375 58.29296875 32.609375 58.29296875 C32.609375 58.95296875 32.609375 59.61296875 32.609375 60.29296875 C31.949375 60.29296875 31.289375 60.29296875 30.609375 60.29296875 C30.279375 61.61296875 29.949375 62.93296875 29.609375 64.29296875 C28.949375 64.29296875 28.289375 64.29296875 27.609375 64.29296875 C27.50625 64.84984375 27.403125 65.40671875 27.296875 65.98046875 C26.46038737 68.79410897 25.32720237 70.91443854 23.609375 73.29296875 C22.619375 73.29296875 21.629375 73.29296875 20.609375 73.29296875 C20.5475 73.84984375 20.485625 74.40671875 20.421875 74.98046875 C18.17067922 81.38771827 10.00103686 86.65918041 4.046875 89.52734375 C-7.48473062 94.26353892 -21.01060668 95.80401595 -32.86279297 91.24462891 C-43.90275536 86.40384597 -52.46351996 79.50119242 -57.390625 68.29296875 C-57.76960938 67.4421875 -58.14859375 66.59140625 -58.5390625 65.71484375 C-63.57241136 53.79187552 -63.91480548 41.65754236 -59.7265625 29.375 C-56.72108377 22.44130785 -52.13363697 16.21555044 -46.390625 11.29296875 C-45.730625 11.29296875 -45.070625 11.29296875 -44.390625 11.29296875 C-44.390625 10.63296875 -44.390625 9.97296875 -44.390625 9.29296875 C-42.625 7.890625 -42.625 7.890625 -40.140625 6.35546875 C-39.35171875 5.85144531 -38.5628125 5.34742188 -37.75 4.828125 C-25.58976587 -0.7288192 -13.07089611 -0.1002564 0 0 Z " fill="#4B774B" transform="translate(156.390625,191.70703125)"/>
<path d="M0 0 C0.495 0.99 0.495 0.99 1 2 C23.44 2 45.88 2 69 2 C69 17.50174021 63.8696567 29.33393897 54 41 C53.51144531 41.6084375 53.02289063 42.216875 52.51953125 42.84375 C45.06479435 51.27584315 31.9778245 57.46156123 21 59 C18.87709919 59.08301288 16.75196022 59.11786114 14.62744141 59.11352539 C13.38660797 59.11344986 12.14577454 59.11337433 10.86734009 59.11329651 C9.52874714 59.10819113 8.19015461 59.10297515 6.8515625 59.09765625 C5.47008312 59.09578906 4.08860308 59.09436658 2.7071228 59.09336853 C-0.91288103 59.08956702 -4.53284417 59.07975716 -8.15283203 59.06866455 C-11.85318451 59.05839935 -15.55354361 59.05386 -19.25390625 59.04882812 C-26.50262264 59.03813258 -33.7513056 59.02108485 -41 59 C-40.67 57.68 -40.34 56.36 -40 55 C-39.34 55 -38.68 55 -38 55 C-37.67 53.68 -37.34 52.36 -37 51 C-36.34 51 -35.68 51 -35 51 C-34.7421875 50.28457031 -34.484375 49.56914062 -34.21875 48.83203125 C-32.92615235 45.82839889 -31.3722291 43.36494628 -29.5 40.6875 C-28.8915625 39.80449219 -28.283125 38.92148438 -27.65625 38.01171875 C-27.1096875 37.34785156 -26.563125 36.68398437 -26 36 C-25.34 36 -24.68 36 -24 36 C-23.87625 35.401875 -23.7525 34.80375 -23.625 34.1875 C-23 32 -23 32 -21 29 C-20.34 29 -19.68 29 -19 29 C-18.89727783 28.42942871 -18.79455566 27.85885742 -18.6887207 27.27099609 C-17.87507017 24.58805486 -16.66745616 22.90050066 -14.98046875 20.6640625 C-14.37009766 19.84679687 -13.75972656 19.02953125 -13.13085938 18.1875 C-12.48955078 17.341875 -11.84824219 16.49625 -11.1875 15.625 C-9.92975901 13.95144495 -8.6732194 12.27698624 -7.41796875 10.6015625 C-6.82677246 9.81297852 -6.23557617 9.02439453 -5.62646484 8.21191406 C-3.65461448 5.53029228 -1.80700126 2.79470724 0 0 Z " fill="#3B775F" transform="translate(344,133)"/>
<path d="M0 0 C2.1576101 0.00560453 4.31522405 0.00987057 6.47283936 0.01286316 C12.11495756 0.02424449 17.75683916 0.05365309 23.39886475 0.0869751 C29.1708252 0.1178216 34.94282439 0.13139949 40.71484375 0.14648438 C52.01312402 0.17852988 63.31122973 0.22964392 74.609375 0.29296875 C74.01171829 1.32708389 73.41406158 2.36119904 72.79829407 3.426651 C71.48343727 5.70860171 70.29331515 7.95697544 69.15910339 10.33982849 C67.04199984 14.12886265 65.03924007 17.50968159 60.70834732 18.90578079 C54.84064327 19.91467479 48.90120532 19.65054037 42.97265625 19.515625 C41.04550844 19.51246514 39.11834596 19.5144535 37.19120789 19.52134705 C32.1335397 19.52699836 27.07866596 19.46881799 22.02160645 19.39526367 C15.87457052 19.3163469 9.72712054 19.30553389 3.57964611 19.29241848 C-1.2024146 19.28203907 -5.9831316 19.25900858 -10.76481628 19.19606018 C-11.64398209 19.18804886 -12.52314789 19.18003754 -13.42895508 19.17178345 C-15.06481609 19.15687367 -16.70063398 19.13444792 -18.33625793 19.1028595 C-25.43248514 19.05667993 -29.76646643 21.07484982 -35.390625 25.29296875 C-42.20085899 32.41995781 -43.89761941 38.55675193 -43.88867188 48.21337891 C-43.72888184 53.77381437 -42.35279455 57.77163532 -39.484375 62.47265625 C-38.390625 64.29296875 -38.390625 64.29296875 -38.390625 66.29296875 C-37.730625 66.29296875 -37.070625 66.29296875 -36.390625 66.29296875 C-35.895625 66.87046875 -35.400625 67.44796875 -34.890625 68.04296875 C-28.50965672 73.7858402 -20.51821794 74.89059469 -12.2265625 74.90234375 C-11.30847809 74.91888 -10.39039368 74.93541626 -9.44448853 74.95245361 C-6.55146311 75.00050775 -3.65896155 75.02220895 -0.765625 75.04296875 C1.21226534 75.07116414 3.19013173 75.10109648 5.16796875 75.1328125 C9.9817276 75.20625468 14.79520287 75.25608829 19.609375 75.29296875 C18.37332157 81.3426281 13.5612663 84.00908294 8.609375 87.29296875 C-3.34130708 93.32747158 -17.69674748 96.30989398 -30.77734375 92.046875 C-41.65712214 87.86156105 -51.10180459 81.30123214 -56.3671875 70.62109375 C-56.87378906 69.46867187 -56.87378906 69.46867187 -57.390625 68.29296875 C-57.76960938 67.4421875 -58.14859375 66.59140625 -58.5390625 65.71484375 C-63.57241136 53.79187552 -63.91480548 41.65754236 -59.7265625 29.375 C-56.72108377 22.44130785 -52.13363697 16.21555044 -46.390625 11.29296875 C-45.730625 11.29296875 -45.070625 11.29296875 -44.390625 11.29296875 C-44.390625 10.63296875 -44.390625 9.97296875 -44.390625 9.29296875 C-42.625 7.890625 -42.625 7.890625 -40.140625 6.35546875 C-39.35171875 5.85144531 -38.5628125 5.34742188 -37.75 4.828125 C-25.58976587 -0.7288192 -13.07089611 -0.1002564 0 0 Z " fill="#0C1C33" transform="translate(156.390625,191.70703125)"/>
<path d="M0 0 C0.495 0.99 0.495 0.99 1 2 C18.82 2.33 36.64 2.66 55 3 C55 22.73214286 55 22.73214286 51 33 C50.34 33 49.68 33 49 33 C48.7215625 34.2375 48.7215625 34.2375 48.4375 35.5 C44.35869341 45.43100735 34.46089285 52.62994048 25.01953125 57.17578125 C20.1656948 59.15674738 16.07906636 60.24927876 10.81103516 60.22705078 C9.61024323 60.22689972 8.40945129 60.22674866 7.17227173 60.22659302 C5.25008316 60.21110916 5.25008316 60.21110916 3.2890625 60.1953125 C1.95242526 60.1915779 0.61578526 60.18873304 -0.72085571 60.18673706 C-4.22255132 60.17913577 -7.7240785 60.15951788 -11.22570801 60.1373291 C-14.80539675 60.11679474 -18.38511296 60.10771918 -21.96484375 60.09765625 C-28.97663127 60.07626829 -35.98830753 60.04217516 -43 60 C-42.67 59.01 -42.34 58.02 -42 57 C-41.34 57 -40.68 57 -40 57 C-39.7525 56.29488281 -39.505 55.58976562 -39.25 54.86328125 C-37.83896341 51.63112557 -36.0749274 49.03671098 -34 46.1875 C-33.29875 45.21167969 -32.5975 44.23585937 -31.875 43.23046875 C-31.25625 42.49441406 -30.6375 41.75835937 -30 41 C-29.34 41 -28.68 41 -28 41 C-27.34 39.02 -26.68 37.04 -26 35 C-25.34 35 -24.68 35 -24 35 C-23.5978125 33.91138672 -23.5978125 33.91138672 -23.1875 32.80078125 C-22.01329619 30.03135976 -20.6605676 27.69080566 -19 25.1875 C-18.484375 24.39730469 -17.96875 23.60710937 -17.4375 22.79296875 C-16.963125 22.20128906 -16.48875 21.60960937 -16 21 C-15.34 21 -14.68 21 -14 21 C-13.67 19.68 -13.34 18.36 -13 17 C-12.34 17 -11.68 17 -11 17 C-10.88213135 16.40670898 -10.7642627 15.81341797 -10.64282227 15.20214844 C-9.6135279 11.67604318 -7.19685455 9.07807791 -4.9375 6.25 C-4.46505859 5.64800781 -3.99261719 5.04601562 -3.50585938 4.42578125 C-2.34309599 2.94590057 -1.1723234 1.47231904 0 0 Z " fill="#2B7571" transform="translate(291,207)"/>
<path d="M0 0 C48.84 0 97.68 0 148 0 C146.68 2.31 145.36 4.62 144 7 C143.34 7 142.68 7 142 7 C141.77054688 7.50660156 141.54109375 8.01320312 141.3046875 8.53515625 C139.47449189 11.99280125 137.30236663 15.19049408 135.125 18.4375 C134.69058594 19.09298828 134.25617188 19.74847656 133.80859375 20.42382812 C131.35707353 24.09374654 128.7799749 27.56770643 126 31 C125.46375 31.9075 124.9275 32.815 124.375 33.75 C123 36 123 36 121 37 C119.61852047 39.31732049 118.28937456 41.63278889 117 44 C114.55366756 48.46721576 111.66758428 52.66620786 107 55 C106.16121545 53.71186658 105.32913217 52.41936744 104.5 51.125 C103.80390625 50.04605469 103.80390625 50.04605469 103.09375 48.9453125 C102 47 102 47 102 45 C101.34 45 100.68 45 100 45 C99.505 43.02 99.505 43.02 99 41 C98.34 41 97.68 41 97 41 C96 39.33333333 95 37.66666667 94 36 C92.24242171 34.05741347 90.48787682 32.207668 88.625 30.375 C88.15578125 29.89804688 87.6865625 29.42109375 87.203125 28.9296875 C84.34703684 26.08937884 81.51944597 23.94216918 78 22 C77.01 21.34 76.02 20.68 75 20 C75 19.34 75 18.68 75 18 C73.92492187 17.59394531 73.92492187 17.59394531 72.828125 17.1796875 C70.00028219 16.00011771 67.41715157 14.63014694 64.75 13.125 C48.95138404 4.4693753 34.40333087 1.40924353 16.5625 1.25 C14.94463092 1.2217502 13.32679043 1.19181075 11.70898438 1.16015625 C7.80604304 1.08737722 3.9034362 1.03716033 0 1 C0 0.67 0 0.34 0 0 Z " fill="#337767" transform="translate(125,135)"/>
<path d="M0 0 C0.7701796 -0.0033284 1.54035919 -0.0066568 2.33387756 -0.01008606 C3.95329191 -0.01511985 5.57271651 -0.01749549 7.19213867 -0.01733398 C9.64975267 -0.01952199 12.1069182 -0.0377195 14.56445312 -0.05664062 C16.1471339 -0.05957513 17.72981678 -0.06155954 19.3125 -0.0625 C20.03670639 -0.06968552 20.76091278 -0.07687103 21.50706482 -0.08427429 C26.53927337 -0.06207909 30.87886993 0.79390049 35.72265625 2.16796875 C32.72265625 4.16796875 32.72265625 4.16796875 29.72265625 5.16796875 C28.83489502 4.71212402 28.83489502 4.71212402 27.92919922 4.24707031 C24.99565227 2.81243018 22.67555276 2.90894091 19.41796875 2.90234375 C18.19464844 2.89976562 16.97132813 2.8971875 15.7109375 2.89453125 C13.79861328 2.90613281 13.79861328 2.90613281 11.84765625 2.91796875 C10.58050781 2.91023437 9.31335938 2.9025 8.0078125 2.89453125 C6.78191406 2.89710938 5.55601562 2.8996875 4.29296875 2.90234375 C3.17680176 2.90459961 2.06063477 2.90685547 0.91064453 2.90917969 C-2.46472029 3.18317928 -5.15649305 3.86354395 -8.27734375 5.16796875 C-8.60734375 5.82796875 -8.93734375 6.48796875 -9.27734375 7.16796875 C-9.97859375 6.96171875 -10.67984375 6.75546875 -11.40234375 6.54296875 C-14.92411985 6.08360665 -16.97679644 6.93026351 -20.27734375 8.16796875 C-21.14359375 8.33296875 -22.00984375 8.49796875 -22.90234375 8.66796875 C-25.35995679 9.18536097 -27.16494423 9.80999763 -29.27734375 11.16796875 C-29.60734375 12.15796875 -29.93734375 13.14796875 -30.27734375 14.16796875 C-31.26734375 13.83796875 -32.25734375 13.50796875 -33.27734375 13.16796875 C-33.27734375 12.50796875 -33.27734375 11.84796875 -33.27734375 11.16796875 C-33.93734375 11.49796875 -34.59734375 11.82796875 -35.27734375 12.16796875 C-35.60734375 13.15796875 -35.93734375 14.14796875 -36.27734375 15.16796875 C-37.42203125 15.32265625 -37.42203125 15.32265625 -38.58984375 15.48046875 C-41.55278881 16.23843144 -42.46839023 16.75603072 -44.27734375 19.16796875 C-45.46762359 21.76712413 -45.46762359 21.76712413 -46.27734375 24.16796875 C-46.99921875 24.10609375 -47.72109375 24.04421875 -48.46484375 23.98046875 C-54.96947832 24.41411105 -59.69122839 29.94643996 -64.27734375 34.16796875 C-64.83164063 34.67328125 -65.3859375 35.17859375 -65.95703125 35.69921875 C-67.52559936 37.24765845 -67.52559936 37.24765845 -68.27734375 40.16796875 C-68.93734375 40.16796875 -69.59734375 40.16796875 -70.27734375 40.16796875 C-70.52484375 40.68359375 -70.77234375 41.19921875 -71.02734375 41.73046875 C-72.67315991 44.93981026 -74.47495335 48.04382539 -76.27734375 51.16796875 C-75.61734375 51.82796875 -74.95734375 52.48796875 -74.27734375 53.16796875 C-75.01984375 53.60109375 -75.76234375 54.03421875 -76.52734375 54.48046875 C-77.43484375 55.03734375 -78.34234375 55.59421875 -79.27734375 56.16796875 C-79.97085938 56.58691406 -80.664375 57.00585938 -81.37890625 57.4375 C-83.86823061 59.7065755 -83.97709708 61.24052119 -84.40234375 64.54296875 C-84.92511527 68.41574552 -85.75240375 71.57267225 -87.27734375 75.16796875 C-92.45837664 89.08602019 -91.77360345 105.49192521 -92.27734375 120.16796875 C-90.95734375 120.49796875 -89.63734375 120.82796875 -88.27734375 121.16796875 C-88.77234375 122.15796875 -88.77234375 122.15796875 -89.27734375 123.16796875 C-89.31701505 124.83416321 -89.32118822 126.50187888 -89.27734375 128.16796875 C-88.61734375 128.16796875 -87.95734375 128.16796875 -87.27734375 128.16796875 C-86.94734375 130.80796875 -86.61734375 133.44796875 -86.27734375 136.16796875 C-85.61734375 136.16796875 -84.95734375 136.16796875 -84.27734375 136.16796875 C-83.94185608 137.95923327 -83.6090202 139.75099462 -83.27734375 141.54296875 C-83.09171875 142.54070312 -82.90609375 143.5384375 -82.71484375 144.56640625 C-82.27734375 147.16796875 -82.27734375 147.16796875 -82.27734375 149.16796875 C-81.61734375 149.16796875 -80.95734375 149.16796875 -80.27734375 149.16796875 C-79.94734375 149.82796875 -79.61734375 150.48796875 -79.27734375 151.16796875 C-78.28734375 150.17796875 -78.28734375 150.17796875 -77.27734375 149.16796875 C-76.94734375 150.15796875 -76.61734375 151.14796875 -76.27734375 152.16796875 C-74.95734375 152.16796875 -73.63734375 152.16796875 -72.27734375 152.16796875 C-70.93570296 152.46611115 -69.59883202 152.79040067 -68.27734375 153.16796875 C-68.75171875 153.60109375 -69.22609375 154.03421875 -69.71484375 154.48046875 C-71.51421332 156.19106488 -71.51421332 156.19106488 -72.27734375 159.16796875 C-70.62734375 159.49796875 -68.97734375 159.82796875 -67.27734375 160.16796875 C-67.60734375 162.47796875 -67.93734375 164.78796875 -68.27734375 167.16796875 C-66.31267962 168.23572099 -64.30879016 169.2335034 -62.27734375 170.16796875 C-61.61734375 169.83796875 -60.95734375 169.50796875 -60.27734375 169.16796875 C-60.27734375 170.81796875 -60.27734375 172.46796875 -60.27734375 174.16796875 C-57.96734375 174.82796875 -55.65734375 175.48796875 -53.27734375 176.16796875 C-52.94734375 178.80796875 -52.61734375 181.44796875 -52.27734375 184.16796875 C-49.63734375 184.16796875 -46.99734375 184.16796875 -44.27734375 184.16796875 C-43.78234375 186.64296875 -43.78234375 186.64296875 -43.27734375 189.16796875 C-42.61734375 189.16796875 -41.95734375 189.16796875 -41.27734375 189.16796875 C-41.27734375 189.82796875 -41.27734375 190.48796875 -41.27734375 191.16796875 C-39.48728434 191.53017141 -37.69522318 191.88249344 -35.90234375 192.23046875 C-34.90460938 192.42769531 -33.906875 192.62492188 -32.87890625 192.828125 C-30.29891836 193.41179827 -30.29891836 193.41179827 -28.27734375 192.16796875 C-26.81671525 194.81535791 -26.27734375 196.06245209 -26.27734375 199.16796875 C-34.31267483 198.15701603 -40.38687978 195.32764977 -47.27734375 191.16796875 C-48.67533203 190.39259766 -48.67533203 190.39259766 -50.1015625 189.6015625 C-50.81957031 189.12847656 -51.53757813 188.65539062 -52.27734375 188.16796875 C-52.27734375 187.50796875 -52.27734375 186.84796875 -52.27734375 186.16796875 C-53.2828125 185.89339844 -53.2828125 185.89339844 -54.30859375 185.61328125 C-58.58462797 183.53152775 -61.46829053 180.4109952 -64.77734375 177.04296875 C-65.42832031 176.40359375 -66.07929687 175.76421875 -66.75 175.10546875 C-70.50732522 171.32537186 -73.51958117 167.57301329 -76.15429688 162.93408203 C-77.21759306 161.11546398 -77.21759306 161.11546398 -78.78344727 159.68652344 C-80.47918605 157.96279485 -81.35102577 156.3510009 -82.3984375 154.17578125 C-82.77476318 153.39460937 -83.15108887 152.6134375 -83.53881836 151.80859375 C-83.92690674 150.9784375 -84.31499512 150.14828125 -84.71484375 149.29296875 C-85.31534546 148.01292969 -85.31534546 148.01292969 -85.92797852 146.70703125 C-92.25806572 132.94585947 -95.68000458 119.11289586 -95.52734375 103.91796875 C-95.51912598 102.91435303 -95.5109082 101.9107373 -95.50244141 100.87670898 C-95.06446777 71.54895806 -83.48021089 47.18178534 -62.64453125 26.5625 C-45.65625643 10.56641787 -23.54075657 0.03607216 0 0 Z " fill="#7EB05F" transform="translate(132.27734375,135.83203125)"/>
<path d="M0 0 C-1.31674625 3.61815142 -2.90557984 6.54837248 -5.14453125 9.67578125 C-6.07773193 10.98023193 -6.07773193 10.98023193 -7.02978516 12.31103516 C-10.84038065 17.5117661 -14.74100262 22.64297072 -18.65820312 27.76367188 C-22.14302354 32.36391901 -25.27845861 36.9083061 -28 42 C-28.66 42 -29.32 42 -30 42 C-31.20628008 44.33214148 -32.1654738 46.49642139 -33 49 C-34.17686053 50.10961136 -35.35380388 51.21913505 -36.53125 52.328125 C-39.07558303 55.22433388 -40.80823936 58.62702892 -42.66796875 61.98828125 C-43.10753906 62.65214844 -43.54710937 63.31601563 -44 64 C-44.66 64 -45.32 64 -46 64 C-46.495 65.98 -46.495 65.98 -47 68 C-47.66 68 -48.32 68 -49 68 C-49.10973145 68.58297852 -49.21946289 69.16595703 -49.33251953 69.76660156 C-50.07719449 72.25829379 -51.07492644 73.69847623 -52.6796875 75.734375 C-53.48937988 76.77754883 -53.48937988 76.77754883 -54.31542969 77.84179688 C-54.87133789 78.55400391 -55.42724609 79.26621094 -56 80 C-57.02743202 81.37723738 -58.05093363 82.75741638 -59.0703125 84.140625 C-60.08854167 85.51041667 -61.10677083 86.88020833 -62.125 88.25 C-62.63675781 88.94351563 -63.14851563 89.63703125 -63.67578125 90.3515625 C-66.25839912 93.81718339 -68.81933862 97.04761575 -72 100 C-73 99 -73 99 -73.0625 95.4375 C-73.041875 94.303125 -73.02125 93.16875 -73 92 C-70 91 -70 91 -67 91 C-66.85304688 90.24074219 -66.70609375 89.48148437 -66.5546875 88.69921875 C-65.87403929 85.68324304 -65.15862309 82.86876788 -64 80 C-60.9375 78.25 -60.9375 78.25 -58 77 C-56.55032098 73.4306283 -56.55032098 73.4306283 -56 70 C-54.35 70.33 -52.7 70.66 -51 71 C-50.505 69.02 -50.505 69.02 -50 67 C-50.66 67 -51.32 67 -52 67 C-52 66.34 -52 65.68 -52 65 C-51.34 64.67 -50.68 64.34 -50 64 C-48.86649466 61.98330173 -48.86649466 61.98330173 -48 60 C-47.34 60.33 -46.68 60.66 -46 61 C-45.67 59.35 -45.34 57.7 -45 56 C-43.68 55.67 -42.36 55.34 -41 55 C-41 53.68 -41 52.36 -41 51 C-40.34 51 -39.68 51 -39 51 C-39 50.01 -39 49.02 -39 48 C-37.68 47.67 -36.36 47.34 -35 47 C-34.34 44.36 -33.68 41.72 -33 39 C-32.34 39 -31.68 39 -31 39 C-30.9175 37.88625 -30.835 36.7725 -30.75 35.625 C-30.37875 33.830625 -30.37875 33.830625 -30 32 C-28.1875 30.875 -28.1875 30.875 -26 30 C-24.66172696 28.33729713 -23.32810215 26.67083819 -22 25 C-21.01 24.67 -20.02 24.34 -19 24 C-17.6736514 20.92845588 -16.95340169 18.66790907 -17.1875 15.3125 C-17.0946875 14.1678125 -17.0946875 14.1678125 -17 13 C-14.13896577 10.75756777 -12.65923696 10 -9 10 C-8.814375 8.88625 -8.814375 8.88625 -8.625 7.75 C-8.04513299 5.19858515 -7.26291261 3.2732427 -6 1 C-6.99 1.33 -7.98 1.66 -9 2 C-9.495 1.01 -9.495 1.01 -10 0 C-13.57535019 -1.0761054 -13.57535019 -1.0761054 -17 0 C-17 -1.98 -17 -3.96 -17 -6 C-30.86 -6.495 -30.86 -6.495 -45 -7 C-45.33 -5.68 -45.66 -4.36 -46 -3 C-46.66 -3 -47.32 -3 -48 -3 C-48.474375 -2.505 -48.94875 -2.01 -49.4375 -1.5 C-51 0 -51 0 -54 0 C-57.61148859 1.23550925 -60.88918367 2.77798834 -64 5 C-64 5.99 -64 6.98 -64 8 C-64.7425 7.979375 -65.485 7.95875 -66.25 7.9375 C-68.70462279 7.99328688 -70.66109261 8.3069904 -73 9 C-72.505 10.485 -72.505 10.485 -72 12 C-72.4375 14.1875 -72.4375 14.1875 -73 16 C-73.78375 16.12375 -74.5675 16.2475 -75.375 16.375 C-78.14057822 16.79117993 -78.14057822 16.79117993 -80 19 C-80.0825 19.928125 -80.165 20.85625 -80.25 21.8125 C-81.11687544 25.49672063 -82.46486611 26.55258641 -85.43359375 28.77734375 C-87.72635879 30.56695836 -89.36457597 32.60976488 -91 35 C-91 35.99 -91 36.98 -91 38 C-92.64333504 39.03789581 -94.31243867 40.03567924 -96 41 C-96.66 41.99 -97.32 42.98 -98 44 C-98.66 44 -99.32 44 -100 44 C-100 45.65 -100 47.3 -100 49 C-101.485 49.495 -101.485 49.495 -103 50 C-103.061875 50.94875 -103.12375 51.8975 -103.1875 52.875 C-103.455625 53.90625 -103.72375 54.9375 -104 56 C-106.4375 57.3125 -106.4375 57.3125 -109 58 C-109.99 58.495 -109.99 58.495 -111 59 C-109.66666667 56.33333333 -108.33333333 53.66666667 -107 51 C-106.34 51 -105.68 51 -105 51 C-104.79375 50.34 -104.5875 49.68 -104.375 49 C-102.90873307 45.80087216 -101.14096079 43.42959485 -98.98828125 40.66796875 C-97.33709799 38.45233384 -95.7739062 36.2161945 -94.23046875 33.92578125 C-93.74054443 33.19979736 -93.25062012 32.47381348 -92.74584961 31.72583008 C-91.75315566 30.2486976 -90.76562776 28.76807944 -89.78344727 27.28393555 C-89.32381592 26.60242432 -88.86418457 25.92091309 -88.390625 25.21875 C-87.97844727 24.59935547 -87.56626953 23.97996094 -87.14160156 23.34179688 C-86.57650879 22.67760742 -86.57650879 22.67760742 -86 22 C-85.34 22 -84.68 22 -84 22 C-83.7421875 21.27425781 -83.484375 20.54851562 -83.21875 19.80078125 C-81.94757501 16.87952333 -80.45983598 14.69127351 -78.5 12.1875 C-77.58734375 11.00220703 -77.58734375 11.00220703 -76.65625 9.79296875 C-76.1096875 9.20128906 -75.563125 8.60960937 -75 8 C-74.34 8 -73.68 8 -73 8 C-72.77441406 7.4225 -72.54882812 6.845 -72.31640625 6.25 C-67.79499949 -1.47798306 -57.12906395 -6.0287299 -48.88671875 -8.6796875 C-32.04056711 -12.92759448 -13.83393683 -10.72398204 0 0 Z " fill="#4AAB97" transform="translate(353,120)"/>
<path d="M0 0 C1.03125 0.00322266 2.0625 0.00644531 3.125 0.00976562 C4.74535156 0.02233398 4.74535156 0.02233398 6.3984375 0.03515625 C8.03039062 0.04192383 8.03039062 0.04192383 9.6953125 0.04882812 C12.38807539 0.06063849 15.08072938 0.07710847 17.7734375 0.09765625 C18.2684375 1.08765625 18.2684375 1.08765625 18.7734375 2.09765625 C19.4334375 1.76765625 20.0934375 1.43765625 20.7734375 1.09765625 C20.2734375 2.91015625 20.2734375 2.91015625 18.7734375 5.09765625 C16.74589684 5.96967056 14.68790089 6.62550538 12.58984375 7.30859375 C10.55786496 7.96020637 10.55786496 7.96020637 9.7109375 10.22265625 C9.4015625 10.84140625 9.0921875 11.46015625 8.7734375 12.09765625 C5.3359375 12.72265625 5.3359375 12.72265625 1.7734375 13.09765625 C0.7834375 13.75765625 -0.2065625 14.41765625 -1.2265625 15.09765625 C-9.45406774 15.91194661 -16.60405037 15.2517992 -24.2265625 12.09765625 C-23.8965625 8.46765625 -23.5665625 4.83765625 -23.2265625 1.09765625 C-22.09476563 1.10925781 -20.96296875 1.12085938 -19.796875 1.1328125 C-18.31510581 1.14219079 -16.83333485 1.15129095 -15.3515625 1.16015625 C-14.60519531 1.16853516 -13.85882813 1.17691406 -13.08984375 1.18554688 C-8.44405805 1.20647384 -4.61556484 -0.02536025 0 0 Z " fill="#0E1A35" transform="translate(151.2265625,267.90234375)"/>
<path d="M0 0 C4.08378283 0.74250597 8.01939223 1.82923301 12 3 C12 3.66 12 4.32 12 5 C12.99 4.67 13.98 4.34 15 4 C12.97435578 8.20710722 10.5887676 12.1168486 8 16 C7.34 16 6.68 16 6 16 C5.84917969 16.85658203 5.84917969 16.85658203 5.6953125 17.73046875 C4.12562895 24.4930095 1.09698466 29.01492278 -3.24365234 34.26831055 C-6.31253338 37.9879718 -8.6990897 41.75586151 -11 46 C-11.66 46 -12.32 46 -13 46 C-14.20628008 48.33214148 -15.1654738 50.49642139 -16 53 C-17.17686053 54.10961136 -18.35380388 55.21913505 -19.53125 56.328125 C-22.07558303 59.22433388 -23.80823936 62.62702892 -25.66796875 65.98828125 C-26.10753906 66.65214844 -26.54710937 67.31601563 -27 68 C-27.66 68 -28.32 68 -29 68 C-29.33 69.32 -29.66 70.64 -30 72 C-30.66 72 -31.32 72 -32 72 C-32.10973145 72.58297852 -32.21946289 73.16595703 -32.33251953 73.76660156 C-33.07719449 76.25829379 -34.07492644 77.69847623 -35.6796875 79.734375 C-36.48937988 80.77754883 -36.48937988 80.77754883 -37.31542969 81.84179688 C-37.87133789 82.55400391 -38.42724609 83.26621094 -39 84 C-40.02743202 85.37723738 -41.05093363 86.75741638 -42.0703125 88.140625 C-43.08854167 89.51041667 -44.10677083 90.88020833 -45.125 92.25 C-45.89263672 93.29027344 -45.89263672 93.29027344 -46.67578125 94.3515625 C-49.25839912 97.81718339 -51.81933862 101.04761575 -55 104 C-56 103 -56 103 -56.0625 99.4375 C-56.041875 98.303125 -56.02125 97.16875 -56 96 C-53 95 -53 95 -50 95 C-49.77957031 93.86111328 -49.77957031 93.86111328 -49.5546875 92.69921875 C-48.87403929 89.68324304 -48.15862309 86.86876788 -47 84 C-43.9375 82.25 -43.9375 82.25 -41 81 C-39.55032098 77.4306283 -39.55032098 77.4306283 -39 74 C-37.35 74.33 -35.7 74.66 -34 75 C-33.67 73.68 -33.34 72.36 -33 71 C-33.66 71 -34.32 71 -35 71 C-35 70.34 -35 69.68 -35 69 C-34.01 68.505 -34.01 68.505 -33 68 C-31.86649466 65.98330173 -31.86649466 65.98330173 -31 64 C-30.34 64.33 -29.68 64.66 -29 65 C-28.67 63.35 -28.34 61.7 -28 60 C-26.02 59.505 -26.02 59.505 -24 59 C-24 57.68 -24 56.36 -24 55 C-23.34 55 -22.68 55 -22 55 C-22 54.01 -22 53.02 -22 52 C-20.02 51.505 -20.02 51.505 -18 51 C-17.34 48.36 -16.68 45.72 -16 43 C-15.34 43 -14.68 43 -14 43 C-13.9175 41.88625 -13.835 40.7725 -13.75 39.625 C-13.5025 38.42875 -13.255 37.2325 -13 36 C-11.1875 34.875 -11.1875 34.875 -9 34 C-7.66172696 32.33729713 -6.32810215 30.67083819 -5 29 C-4.01 28.67 -3.02 28.34 -2 28 C-0.6736514 24.92845588 0.04659831 22.66790907 -0.1875 19.3125 C-0.0946875 18.1678125 -0.0946875 18.1678125 0 17 C2.86103423 14.75756777 4.34076304 14 8 14 C8.185625 12.88625 8.185625 12.88625 8.375 11.75 C8.95486701 9.19858515 9.73708739 7.2732427 11 5 C10.01 5.33 9.02 5.66 8 6 C7.505 5.01 7.505 5.01 7 4 C3.42464981 2.9238946 3.42464981 2.9238946 0 4 C0 2.68 0 1.36 0 0 Z " fill="#48B195" transform="translate(336,116)"/>
<path d="M0 0 C-1.33333333 2.66666667 -2.66666667 5.33333333 -4 8 C-4.66 8 -5.32 8 -6 8 C-6.27005859 8.73935791 -6.54011719 9.47871582 -6.81835938 10.24047852 C-7.95138419 12.886466 -9.18209013 14.86186785 -10.90625 17.15234375 C-11.48036621 17.92199463 -12.05448242 18.69164551 -12.64599609 19.48461914 C-13.25781738 20.29406982 -13.86963867 21.10352051 -14.5 21.9375 C-15.77434025 23.64255484 -17.04777177 25.3482892 -18.3203125 27.0546875 C-18.94711914 27.89354492 -19.57392578 28.73240234 -20.21972656 29.59667969 C-22.65480226 32.88396509 -25.01741306 36.21949154 -27.375 39.5625 C-39.42485243 56.46077093 -55.08072363 71.57689888 -75 79 C-76.32 79 -77.64 79 -79 79 C-78.49396008 76.83125748 -78.00016187 75.00032373 -77 73 C-76.2575 73.226875 -75.515 73.45375 -74.75 73.6875 C-71.21589402 74.08910295 -70.75191855 73.10028028 -68 71 C-66.32991411 70.32985495 -64.64078422 69.70560669 -62.9375 69.125 C-59.6249126 67.85055374 -58.25384545 67.31730681 -56 64.5 C-55.38504237 62.96260591 -54.77885683 61.42162555 -54.1875 59.875 C-52.43104119 57.10164399 -49.91879506 56.40102163 -47 55 C-45.64691687 53.68671343 -44.31129922 52.35500919 -43 51 C-42.278125 50.731875 -41.55625 50.46375 -40.8125 50.1875 C-40.214375 49.795625 -39.61625 49.40375 -39 49 C-38.18129815 45.43793339 -38.18129815 45.43793339 -38 42 C-35.03 41.01 -32.06 40.02 -29 39 C-29 36.69 -29 34.38 -29 32 C-27.02 31.67 -25.04 31.34 -23 31 C-23.061875 29.96875 -23.12375 28.9375 -23.1875 27.875 C-22.98864405 23.76531027 -22.05532197 21.51117504 -20 18 C-19.34 18 -18.68 18 -18 18 C-18 18.66 -18 19.32 -18 20 C-17.34 19.67 -16.68 19.34 -16 19 C-15.2986716 16.67684969 -14.63514826 14.34210921 -14 12 C-13.1875 9.625 -13.1875 9.625 -12 8 C-11.175 7.855625 -10.35 7.71125 -9.5 7.5625 C-8.2625 7.2840625 -8.2625 7.2840625 -7 7 C-5.83046584 4.57616923 -5.83046584 4.57616923 -5 2 C-2 0 -2 0 0 0 Z " fill="#5DB082" transform="translate(255,256)"/>
<path d="M0 0 C-2.90663649 1.56717267 -5.68777132 2.53102979 -8.875 3.375 C-13.27589611 4.64074446 -16.31727993 6.33002795 -20 9 C-20.66 9 -21.32 9 -22 9 C-22 9.66 -22 10.32 -22 11 C-23.1868363 12.0896512 -24.42619706 13.12248565 -25.6875 14.125 C-34.19108571 21.44378277 -38.38574325 31.32179065 -39.28125 42.515625 C-39.32026932 46.78824052 -39.19189664 50.85588895 -38.484375 55.07421875 C-38.04180422 57.74748903 -37.89655851 60.17286148 -37.9375 62.875 C-37.94652344 63.65617187 -37.95554687 64.43734375 -37.96484375 65.2421875 C-37.97644531 65.82226562 -37.98804687 66.40234375 -38 67 C-38.33 66.01 -38.66 65.02 -39 64 C-39.99 64 -40.98 64 -42 64 C-42.185625 63.13375 -42.185625 63.13375 -42.375 62.25 C-42.89444422 60.00807053 -42.89444422 60.00807053 -44.03125 58.23828125 C-45.28109459 55.35053548 -45.19492572 53.07250304 -45.125 49.9375 C-45.10695313 48.89464844 -45.08890625 47.85179687 -45.0703125 46.77734375 C-45.04710938 45.86082031 -45.02390625 44.94429687 -45 44 C-45 43.01 -45 42.02 -45 41 C-45 38.33333333 -45 35.66666667 -45 33 C-44.01 33 -43.02 33 -42 33 C-42 32.34 -42 31.68 -42 31 C-41.01 31 -40.02 31 -39 31 C-39.020625 30.01 -39.04125 29.02 -39.0625 28 C-39.07081428 23.93431926 -38.56468467 20.02337824 -38 16 C-36.68 16 -35.36 16 -34 16 C-32.38590941 14.28072807 -32.38590941 14.28072807 -31.0625 12.0625 C-28.32506062 8.11306457 -28.32506062 8.11306457 -25.125 7 C-24.42375 7 -23.7225 7 -23 7 C-22.67 4.69 -22.34 2.38 -22 0 C-19.64628886 -0.1968999 -17.2925305 -0.38270974 -14.9375 -0.5625 C-13.62652344 -0.66691406 -12.31554687 -0.77132812 -10.96484375 -0.87890625 C-7.07674103 -0.99765619 -3.80889777 -0.66866216 0 0 Z " fill="#74A86F" transform="translate(134,192)"/>
<path d="M0 0 C0.7701796 -0.0033284 1.54035919 -0.0066568 2.33387756 -0.01008606 C3.95329191 -0.01511985 5.57271651 -0.01749549 7.19213867 -0.01733398 C9.64975267 -0.01952199 12.1069182 -0.0377195 14.56445312 -0.05664062 C16.1471339 -0.05957513 17.72981678 -0.06155954 19.3125 -0.0625 C20.03670639 -0.06968552 20.76091278 -0.07687103 21.50706482 -0.08427429 C26.53927337 -0.06207909 30.87886993 0.79390049 35.72265625 2.16796875 C32.72265625 4.16796875 32.72265625 4.16796875 29.72265625 5.16796875 C28.83489502 4.71212402 28.83489502 4.71212402 27.92919922 4.24707031 C24.99565227 2.81243018 22.67555276 2.90894091 19.41796875 2.90234375 C18.19464844 2.89976562 16.97132813 2.8971875 15.7109375 2.89453125 C14.43605469 2.90226563 13.16117188 2.91 11.84765625 2.91796875 C10.58050781 2.91023437 9.31335938 2.9025 8.0078125 2.89453125 C6.78191406 2.89710938 5.55601562 2.8996875 4.29296875 2.90234375 C3.17680176 2.90459961 2.06063477 2.90685547 0.91064453 2.90917969 C-2.46472029 3.18317928 -5.15649305 3.86354395 -8.27734375 5.16796875 C-8.60734375 5.82796875 -8.93734375 6.48796875 -9.27734375 7.16796875 C-9.97859375 6.96171875 -10.67984375 6.75546875 -11.40234375 6.54296875 C-14.92411985 6.08360665 -16.97679644 6.93026351 -20.27734375 8.16796875 C-21.14359375 8.33296875 -22.00984375 8.49796875 -22.90234375 8.66796875 C-25.35995679 9.18536097 -27.16494423 9.80999763 -29.27734375 11.16796875 C-29.60734375 12.15796875 -29.93734375 13.14796875 -30.27734375 14.16796875 C-31.26734375 13.83796875 -32.25734375 13.50796875 -33.27734375 13.16796875 C-33.27734375 12.50796875 -33.27734375 11.84796875 -33.27734375 11.16796875 C-34.26734375 11.66296875 -34.26734375 11.66296875 -35.27734375 12.16796875 C-35.60734375 13.15796875 -35.93734375 14.14796875 -36.27734375 15.16796875 C-39.24734375 15.16796875 -42.21734375 15.16796875 -45.27734375 15.16796875 C-34.62162503 3.39479638 -15.21827916 0.02331939 0 0 Z " fill="#73AE6B" transform="translate(132.27734375,135.83203125)"/>
<path d="M0 0 C2.1576101 0.00560453 4.31522405 0.00987057 6.47283936 0.01286316 C12.11495756 0.02424449 17.75683916 0.05365309 23.39886475 0.0869751 C29.1708252 0.1178216 34.94282439 0.13139949 40.71484375 0.14648438 C52.01312402 0.17852988 63.31122973 0.22964392 74.609375 0.29296875 C70.984375 7.04296875 70.984375 7.04296875 67.609375 9.29296875 C67.939375 6.65296875 68.269375 4.01296875 68.609375 1.29296875 C66.88980591 1.5396228 66.88980591 1.5396228 65.13549805 1.79125977 C58.60547513 2.51184086 52.06642499 2.38808329 45.50708961 2.33756828 C43.14816793 2.3199903 40.78931564 2.30982109 38.43034363 2.301651 C31.72994449 2.2773531 25.0296401 2.24155186 18.3293457 2.19702148 C14.21466873 2.17018746 10.10004443 2.15318174 5.98529625 2.14215279 C4.4244357 2.13596583 2.86358521 2.12598929 1.30277443 2.1120739 C-0.87919152 2.09277717 -3.06087991 2.08595122 -5.24291992 2.08178711 C-6.48152267 2.07432968 -7.72012543 2.06687225 -8.9962616 2.05918884 C-12.46381405 2.2980095 -15.14033431 3.10952592 -18.390625 4.29296875 C-20.84203359 4.57118 -23.30242265 4.7785422 -25.765625 4.91796875 C-27.63347656 5.03011719 -27.63347656 5.03011719 -29.5390625 5.14453125 C-30.95058594 5.21800781 -30.95058594 5.21800781 -32.390625 5.29296875 C-32.390625 5.95296875 -32.390625 6.61296875 -32.390625 7.29296875 C-33.8468795 7.96416424 -35.30570367 8.62978682 -36.765625 9.29296875 C-37.57773438 9.66421875 -38.38984375 10.03546875 -39.2265625 10.41796875 C-41.390625 11.29296875 -41.390625 11.29296875 -43.390625 11.29296875 C-43.390625 11.95296875 -43.390625 12.61296875 -43.390625 13.29296875 C-44.56625 13.97359375 -44.56625 13.97359375 -45.765625 14.66796875 C-48.61026743 16.42893787 -49.09538306 17.33241574 -50.390625 20.29296875 C-51.390625 21.29296875 -52.390625 22.29296875 -53.390625 23.29296875 C-53.720625 23.99421875 -54.050625 24.69546875 -54.390625 25.41796875 C-55.390625 27.29296875 -55.390625 27.29296875 -58.390625 28.29296875 C-56.35759947 21.78728704 -51.53225505 15.70008022 -46.390625 11.29296875 C-45.730625 11.29296875 -45.070625 11.29296875 -44.390625 11.29296875 C-44.390625 10.63296875 -44.390625 9.97296875 -44.390625 9.29296875 C-42.625 7.890625 -42.625 7.890625 -40.140625 6.35546875 C-39.35171875 5.85144531 -38.5628125 5.34742188 -37.75 4.828125 C-25.58976587 -0.7288192 -13.07089611 -0.1002564 0 0 Z " fill="#0B2821" transform="translate(156.390625,191.70703125)"/>
<path d="M0 0 C14.52 0 29.04 0 44 0 C42.46728405 6.13086379 38.13198699 8.59668231 33 12 C21.67788912 17.7171055 8.39594613 20.58854883 -4.18847656 17.45507812 C-8.34581781 16.06995169 -12.29379033 14.35433102 -16 12 C-16.33 11.01 -16.66 10.02 -17 9 C-15.14375 9.6496875 -15.14375 9.6496875 -13.25 10.3125 C-2.82679284 13.72727926 6.91590609 16.13645171 18 15 C18.99 14.34 19.98 13.68 21 13 C23.33199388 12.92094936 25.66832622 12.91201231 28 13 C28.144375 12.2575 28.28875 11.515 28.4375 10.75 C30.81731618 6.56152352 34.6138594 5.61547154 39 4 C38.01 3.67 37.02 3.34 36 3 C36.33 2.34 36.66 1.68 37 1 C36.47599609 1.16153564 35.95199219 1.32307129 35.41210938 1.48950195 C30.54240769 2.52012404 25.48688582 2.18590588 20.52783203 2.18530273 C18.50662284 2.18749282 16.48595678 2.20568141 14.46484375 2.22460938 C12.54865234 2.22750977 12.54865234 2.22750977 10.59375 2.23046875 C8.84094727 2.23663208 8.84094727 2.23663208 7.05273438 2.24291992 C4 2 4 2 0 0 Z " fill="#0B2B21" transform="translate(132,267)"/>
<path d="M0 0 C0 3.69409249 -0.95248442 4.63289565 -3.125 7.5625 C-18.4780435 28.95151826 -23.20990741 50.24804608 -23.0625 76.125 C-23.0574735 77.66926938 -23.05291264 79.21354034 -23.04882812 80.7578125 C-23.03791697 84.50524187 -23.02071614 88.25261049 -23 92 C-23.66 91.67 -24.32 91.34 -25 91 C-26.25763987 83.58314947 -26.21886431 76.07703742 -26.24023438 68.57080078 C-26.24998195 66.50382854 -26.28111886 64.43783584 -26.3125 62.37109375 C-26.37163846 54.98367222 -25.82563884 48.84276997 -23 42 C-22.29642268 39.60883866 -21.60754628 37.21327312 -20.9375 34.8125 C-19.73193119 30.49859715 -18.44739055 26.23924611 -17 22 C-16.01 22 -15.02 22 -14 22 C-13.93941406 21.32453125 -13.87882812 20.6490625 -13.81640625 19.953125 C-13.73261719 19.06109375 -13.64882813 18.1690625 -13.5625 17.25 C-13.48128906 16.36828125 -13.40007813 15.4865625 -13.31640625 14.578125 C-13.03761535 12.30649548 -12.61209423 10.20148177 -12 8 C-10.948125 7.79375 -9.89625 7.5875 -8.8125 7.375 C-4.35592764 6.14310195 -2.64156418 3.68218037 0 0 Z " fill="#0A2219" transform="translate(61,169)"/>
<path d="M0 0 C2.10372132 2.55451874 4.00954369 5.01625963 5.6875 7.875 C12.27987653 16.78361693 23.1564993 22.28189985 33.87109375 24.62890625 C37.86810232 25.10295845 41.85641493 25.35475959 45.875 25.5625 C46.65875 25.60568359 47.4425 25.64886719 48.25 25.69335938 C50.16650649 25.79853351 52.08323333 25.89967925 54 26 C52 28 52 28 48.83544922 28.22705078 C47.49182037 28.22673389 46.1481659 28.21542181 44.8046875 28.1953125 C44.09724396 28.1924826 43.38980042 28.18965271 42.66091919 28.18673706 C40.3987749 28.17553137 38.13702485 28.15042679 35.875 28.125 C34.34245363 28.11497067 32.80990106 28.10584474 31.27734375 28.09765625 C27.51807699 28.07559086 23.75910536 28.04105896 20 28 C20.33 27.01 20.66 26.02 21 25 C19.21046815 24.16209211 17.41830305 23.32980604 15.625 22.5 C14.62726563 22.0359375 13.62953125 21.571875 12.6015625 21.09375 C10.16307374 19.8708127 10.16307374 19.8708127 8 20 C7.67 17.36 7.34 14.72 7 12 C5.88625 12.020625 4.7725 12.04125 3.625 12.0625 C0 12 0 12 -2 11 C-2.59528685 8.16093962 -3.06881101 5.85565675 -3 3 C-1.5625 1 -1.5625 1 0 0 Z " fill="#76AC67" transform="translate(99,260)"/>
<path d="M0 0 C1.40668945 0.00966797 1.40668945 0.00966797 2.84179688 0.01953125 C4.30649414 0.04466797 4.30649414 0.04466797 5.80078125 0.0703125 C6.78884766 0.07933594 7.77691406 0.08835938 8.79492188 0.09765625 C11.2346189 0.1212282 13.67382822 0.15413228 16.11328125 0.1953125 C16.68917715 16.46437165 9.79493453 29.21730375 -0.61328125 41.1796875 C-4.61501685 45.45551458 -8.52822146 47.84509439 -13.88671875 50.1953125 C-13.55671875 48.5453125 -13.22671875 46.8953125 -12.88671875 45.1953125 C-10.41171875 44.7003125 -10.41171875 44.7003125 -7.88671875 44.1953125 C-7.55671875 43.2053125 -7.22671875 42.2153125 -6.88671875 41.1953125 C-5.56690231 40.50227081 -4.23166608 39.83822688 -2.88671875 39.1953125 C0.16998758 36.29217276 2.66848412 33.30730532 4.23828125 29.3828125 C5.11328125 27.1953125 5.11328125 27.1953125 7.23828125 25.8828125 C7.85703125 25.6559375 8.47578125 25.4290625 9.11328125 25.1953125 C9.11328125 23.5453125 9.11328125 21.8953125 9.11328125 20.1953125 C9.77328125 20.1953125 10.43328125 20.1953125 11.11328125 20.1953125 C11.89144576 15.78571359 12.00435355 12.53928997 11.11328125 8.1953125 C11.55078125 4.8828125 11.55078125 4.8828125 12.11328125 2.1953125 C11.44941406 2.36933594 10.78554688 2.54335937 10.1015625 2.72265625 C6.43730699 3.3022313 2.97320078 3.0635546 -0.69921875 2.7578125 C-1.73852539 2.67950195 -1.73852539 2.67950195 -2.79882812 2.59960938 C-4.49526312 2.47091431 -6.19106738 2.33395066 -7.88671875 2.1953125 C-4.63281887 0.02604591 -3.75275918 -0.04548799 0 0 Z " fill="#316D77" transform="translate(396.88671875,134.8046875)"/>
<path d="M0 0 C0.99 0 1.98 0 3 0 C2.25 4.75 2.25 4.75 0 7 C-2.80149514 7.18813821 -5.50336003 7.2517501 -8.30517578 7.22705078 C-9.16378204 7.22734283 -10.02238831 7.22763489 -10.90701294 7.22793579 C-13.75321457 7.22653922 -16.59915644 7.21096273 -19.4453125 7.1953125 C-21.41543434 7.19158353 -23.38555802 7.18873601 -25.35568237 7.18673706 C-30.54743548 7.17909146 -35.73907714 7.15943504 -40.93078613 7.1373291 C-46.2259775 7.1168906 -51.52118683 7.10773962 -56.81640625 7.09765625 C-67.21098654 7.07619001 -77.60548401 7.04204292 -88 7 C-88 6.34 -88 5.68 -88 5 C-59.62 4.67 -31.24 4.34 -2 4 C-1.34 2.68 -0.68 1.36 0 0 Z " fill="#082326" transform="translate(219,203)"/>
<path d="M0 0 C8.61481669 -0.02322081 17.22962019 -0.04096462 25.84446049 -0.05181217 C29.84513013 -0.05701974 33.84577827 -0.0640786 37.84643555 -0.07543945 C41.71084745 -0.08634411 45.57523874 -0.09229285 49.43966484 -0.09487724 C50.91036745 -0.09671787 52.38106899 -0.10031207 53.85176277 -0.10573006 C55.91951009 -0.11304121 57.98717338 -0.11398672 60.05493164 -0.11352539 C61.22963516 -0.115746 62.40433868 -0.11796661 63.61463928 -0.12025452 C67.13748442 0.00488371 70.52178317 0.44081323 74 1 C70.65060119 3.02558881 68.13037449 3.21738987 64.25 3.125 C63.26515625 3.10695312 62.2803125 3.08890625 61.265625 3.0703125 C60.14414063 3.03550781 60.14414063 3.03550781 59 3 C58.67 4.98 58.34 6.96 58 9 C57.32195312 8.72285156 56.64390625 8.44570312 55.9453125 8.16015625 C37.59102946 0.93041877 19.47010854 1.08281698 0 1 C0 0.67 0 0.34 0 0 Z " fill="#4D775E" transform="translate(125,135)"/>
<path d="M0 0 C1.90652344 -0.02126953 1.90652344 -0.02126953 3.8515625 -0.04296875 C7.22558938 0.17772702 9.32113522 0.85338842 12.375 2.1875 C16.80594072 2.68262406 21.04266439 2.17774814 25.375 1.1875 C26.365 1.1875 27.355 1.1875 28.375 1.1875 C28.375 1.8475 28.375 2.5075 28.375 3.1875 C30.025 3.1875 31.675 3.1875 33.375 3.1875 C33.375 3.5175 33.375 3.8475 33.375 4.1875 C0.375 4.1875 -32.625 4.1875 -66.625 4.1875 C-66.625 3.8575 -66.625 3.5275 -66.625 3.1875 C-65.66993309 3.1720388 -65.66993309 3.1720388 -64.6955719 3.15626526 C-58.09373202 3.04843669 -51.49203522 2.93382039 -44.89038086 2.81518555 C-42.42361431 2.77176057 -39.95681622 2.73009128 -37.48999023 2.69018555 C-33.95286534 2.63266555 -30.41590034 2.56891925 -26.87890625 2.50390625 C-25.76850479 2.48719376 -24.65810333 2.47048126 -23.51405334 2.45326233 C-22.49307053 2.43331711 -21.47208771 2.41337189 -20.42016602 2.39282227 C-19.51637711 2.37727798 -18.6125882 2.3617337 -17.68141174 2.34571838 C-15.63305899 2.41248543 -15.63305899 2.41248543 -14.625 1.1875 C-9.72864217 0.3135931 -4.96854323 0.02529808 0 0 Z " fill="#71AC88" transform="translate(194.625,187.8125)"/>
<path d="M0 0 C0.49886719 0.38671875 0.99773437 0.7734375 1.51171875 1.171875 C-1.29833356 8.92374345 -6.41343165 15.64928445 -12.48828125 21.171875 C-12.05155179 16.22227441 -9.68945524 13.83035956 -6.48828125 10.171875 C-5.45470978 8.52581674 -4.44767793 6.86224058 -3.48828125 5.171875 C-2.82828125 4.181875 -2.16828125 3.191875 -1.48828125 2.171875 C-2.14828125 2.171875 -2.80828125 2.171875 -3.48828125 2.171875 C-3.98328125 1.181875 -3.98328125 1.181875 -4.48828125 0.171875 C-6.81143156 -0.5294534 -9.14617204 -1.19297674 -11.48828125 -1.828125 C-12.84178719 -2.45282005 -14.18762608 -3.0997581 -15.48828125 -3.828125 C-15.48828125 -4.158125 -15.48828125 -4.488125 -15.48828125 -4.828125 C-30.33828125 -5.323125 -30.33828125 -5.323125 -45.48828125 -5.828125 C-45.15828125 -6.488125 -44.82828125 -7.148125 -44.48828125 -7.828125 C-29.82200185 -12.26811193 -12.13521363 -8.80184256 0 0 Z " fill="#4BA6A5" transform="translate(351.48828125,118.828125)"/>
<path d="M0 0 C-1.33333333 2.66666667 -2.66666667 5.33333333 -4 8 C-4.66 8 -5.32 8 -6 8 C-6.26570801 8.73355713 -6.53141602 9.46711426 -6.80517578 10.22290039 C-7.98931821 12.97517259 -9.32055297 15.04623084 -11.1171875 17.43359375 C-12.02791016 18.6546582 -12.02791016 18.6546582 -12.95703125 19.90039062 C-13.58996094 20.73763672 -14.22289062 21.57488281 -14.875 22.4375 C-20.61846608 30.09137918 -20.61846608 30.09137918 -26 38 C-26.99 37.67 -27.98 37.34 -29 37 C-29 35.35 -29 33.7 -29 32 C-27.02 31.67 -25.04 31.34 -23 31 C-23.0928125 29.453125 -23.0928125 29.453125 -23.1875 27.875 C-22.98864405 23.76531027 -22.05532197 21.51117504 -20 18 C-19.34 18 -18.68 18 -18 18 C-18 18.66 -18 19.32 -18 20 C-17.34 19.67 -16.68 19.34 -16 19 C-15.2986716 16.67684969 -14.63514826 14.34210921 -14 12 C-13.1875 9.625 -13.1875 9.625 -12 8 C-11.175 7.855625 -10.35 7.71125 -9.5 7.5625 C-8.675 7.376875 -7.85 7.19125 -7 7 C-5.83046584 4.57616923 -5.83046584 4.57616923 -5 2 C-2 0 -2 0 0 0 Z " fill="#60AC8F" transform="translate(255,256)"/>
<path d="M0 0 C0.33 0.66 0.66 1.32 1 2 C-1.31578947 6.31578947 -1.31578947 6.31578947 -3 8 C-2.34 8.33 -1.68 8.66 -1 9 C-1 9.66 -1 10.32 -1 11 C-4.465 12.485 -4.465 12.485 -8 14 C-8.03738281 14.61488281 -8.07476562 15.22976562 -8.11328125 15.86328125 C-8.17902344 16.67152344 -8.24476563 17.47976562 -8.3125 18.3125 C-8.37050781 19.11300781 -8.42851562 19.91351563 -8.48828125 20.73828125 C-9.09499565 23.41986625 -9.84362154 24.3353373 -12 26 C-12.99 26.33 -13.98 26.66 -15 27 C-16.82262331 30.39162706 -16.82262331 30.39162706 -18 34 C-17.67 34.66 -17.34 35.32 -17 36 C-19.64 36.33 -22.28 36.66 -25 37 C-21.28864207 26.69067241 -13.47450981 17.72838573 -7 9 C-6.47019531 8.236875 -5.94039062 7.47375 -5.39453125 6.6875 C-4.93433594 6.130625 -4.47414062 5.57375 -4 5 C-3.34 5 -2.68 5 -2 5 C-1.34 3.35 -0.68 1.7 0 0 Z " fill="#59AC89" transform="translate(241,179)"/>
<path d="M0 0 C0.93423645 3.01031744 1.04449911 3.86650268 0 7 C-0.66 7 -1.32 7 -2 7 C-2.268125 7.556875 -2.53625 8.11375 -2.8125 8.6875 C-4 11 -4 11 -5.625 13.625 C-7.16701209 15.83109005 -7.16701209 15.83109005 -7 18 C-6.30519531 17.65195313 -5.61039062 17.30390625 -4.89453125 16.9453125 C-1.39108382 15.80113669 0.72006638 16.16440873 4.3125 16.875 C5.38113281 17.07867187 6.44976562 17.28234375 7.55078125 17.4921875 C8.35902344 17.65976563 9.16726563 17.82734375 10 18 C10 18.33 10 18.66 10 19 C1.42 19.33 -7.16 19.66 -16 20 C-15.67 18.68 -15.34 17.36 -15 16 C-14.34 16 -13.68 16 -13 16 C-12.67 14.68 -12.34 13.36 -12 12 C-11.34 12 -10.68 12 -10 12 C-9.773125 11.278125 -9.54625 10.55625 -9.3125 9.8125 C-7.23096303 5.35206364 -4.04684244 2.69789496 0 0 Z " fill="#4A7A51" transform="translate(319,172)"/>
<path d="M0 0 C0.33 0 0.66 0 1 0 C0.74438677 2.3431213 0.40729228 4.67843403 0 7 C-0.99 7.495 -0.99 7.495 -2 8 C-2.309375 8.66 -2.61875 9.32 -2.9375 10 C-4 12 -4 12 -7 13 C-6.67 13.99 -6.34 14.98 -6 16 C-5.40309357 15.99555878 -4.80618713 15.99111755 -4.19119263 15.98654175 C2.00516371 15.94239419 8.20147558 15.91216941 14.39794922 15.89013672 C16.71242079 15.88006108 19.02687959 15.86640025 21.34130859 15.84912109 C24.66246693 15.82494135 27.9834574 15.8135327 31.3046875 15.8046875 C32.34430634 15.79436493 33.38392517 15.78404236 34.45504761 15.77340698 C35.41589264 15.77325592 36.37673767 15.77310486 37.36669922 15.77294922 C38.63910965 15.76628738 38.63910965 15.76628738 39.93722534 15.75949097 C42 16 42 16 44 18 C25.85 18 7.7 18 -11 18 C-8.78380754 12.82888426 -7.11060762 9.41445194 -3.875 5.0625 C-2.81925781 3.62583984 -2.81925781 3.62583984 -1.7421875 2.16015625 C-1.16726563 1.44730469 -0.59234375 0.73445312 0 0 Z " fill="#052635" transform="translate(302,192)"/>
<path d="M0 0 C1.99085632 3.68120603 3.33558535 7.57395593 4.75 11.5 C7.06710821 17.83903931 9.72877557 23.77672119 12.8984375 29.7421875 C14 32 14 32 14 34 C14.99 34.33 15.98 34.66 17 35 C20.10772305 38.93035563 21.5250019 42.01251998 22 47 C15.64425147 41.0982335 12.03807793 33.56466599 8 26 C7.01 26 6.02 26 5 26 C5 25.34 5 24.68 5 24 C4.01 24.33 3.02 24.66 2 25 C2.020625 24.195625 2.04125 23.39125 2.0625 22.5625 C2.29633621 20.06645115 2.29633621 20.06645115 1 19 C0.09015894 12.63111261 -0.12074853 6.42650535 0 0 Z " fill="#102326" transform="translate(39,262)"/>
<path d="M0 0 C1.64642547 0.11694237 3.29212602 0.24409233 4.9375 0.375 C5.85402344 0.44460938 6.77054687 0.51421875 7.71484375 0.5859375 C10.30500865 0.91240299 12.61847781 1.38023826 15.13671875 2.0078125 C21.6846962 3.5203108 28.31038546 3.42425194 35 3.56640625 C35.98742187 3.59605469 36.97484375 3.62570312 37.9921875 3.65625 C39.32805908 3.68428711 39.32805908 3.68428711 40.69091797 3.71289062 C43 4 43 4 46 6 C35.47181701 11.2640915 15.03289296 7.08355214 4 4 C1.578125 2.8984375 1.578125 2.8984375 0 2 C0 1.34 0 0.68 0 0 Z " fill="#77AE75" transform="translate(108,335)"/>
<path d="M0 0 C0.33 0.99 0.66 1.98 1 3 C-3.625 7.875 -3.625 7.875 -7 9 C-7.39044206 10.31774196 -7.70955086 11.65667272 -8 13 C-8.96887581 15.01526169 -9.9641321 17.01833966 -11 19 C-11.66 19 -12.32 19 -13 19 C-12.814375 19.928125 -12.62875 20.85625 -12.4375 21.8125 C-12 25 -12 25 -13 28 C-12.34 28 -11.68 28 -11 28 C-10.87882812 28.71027344 -10.75765625 29.42054688 -10.6328125 30.15234375 C-10.46523437 31.07144531 -10.29765625 31.99054688 -10.125 32.9375 C-9.96257812 33.85402344 -9.80015625 34.77054688 -9.6328125 35.71484375 C-9.42398438 36.46894531 -9.21515625 37.22304687 -9 38 C-8.34 38.33 -7.68 38.66 -7 39 C-7 39.99 -7 40.98 -7 42 C-6.360625 42.226875 -5.72125 42.45375 -5.0625 42.6875 C-3 44 -3 44 -2.25 46.625 C-2.12625 47.800625 -2.12625 47.800625 -2 49 C-3.32 48.34 -4.64 47.68 -6 47 C-6 46.34 -6 45.68 -6 45 C-6.66 45 -7.32 45 -8 45 C-13.96513398 35.62621803 -15.34355382 27.80634233 -14 17 C-13.13599499 13.86558182 -11.95984896 11.57906504 -10 9 C-9.51789063 8.35417969 -9.03578125 7.70835937 -8.5390625 7.04296875 C-5.93735859 3.80074382 -3.84167096 1.70556943 0 0 Z M-11 27 C-9 28 -9 28 -9 28 Z " fill="#516F54" transform="translate(126,213)"/>
<path d="M0 0 C0.66 0 1.32 0 2 0 C0.2922518 3.79602726 -2.07470793 7.0777599 -4.5 10.4375 C-4.93489746 11.04352051 -5.36979492 11.64954102 -5.81787109 12.27392578 C-10.40332025 18.62515922 -15.17978116 24.82601757 -20 31 C-20.66 30.67 -21.32 30.34 -22 30 C-22 27.69 -22 25.38 -22 23 C-19 22 -19 22 -16 22 C-15.85304688 21.24074219 -15.70609375 20.48148438 -15.5546875 19.69921875 C-14.87403929 16.68324304 -14.15862309 13.86876788 -13 11 C-9.9375 9.25 -9.9375 9.25 -7 8 C-5.55032098 4.4306283 -5.55032098 4.4306283 -5 1 C-2.525 1.495 -2.525 1.495 0 2 C0 1.34 0 0.68 0 0 Z " fill="#4FAF9D" transform="translate(302,189)"/>
<path d="M0 0 C31.35 0 62.7 0 95 0 C91 7 91 7 88 9 C88.33 6.36 88.66 3.72 89 1 C87.68753799 1.16455185 86.37507599 1.3291037 85.02284241 1.49864197 C80.5317226 1.99521811 76.14758098 2.10336328 71.63452148 2.02172852 C70.8529216 2.01212097 70.07132172 2.00251343 69.26603699 1.99261475 C66.71761994 1.95999293 64.16939478 1.91952421 61.62109375 1.87890625 C59.84034372 1.85456899 58.05958685 1.83072732 56.27882385 1.80735779 C51.61815535 1.74487526 46.95760966 1.67570938 42.29705811 1.60510254 C37.53077736 1.53409308 32.76441034 1.46947207 27.99804688 1.40429688 C18.66526974 1.27574722 9.33260995 1.14012957 0 1 C0 0.67 0 0.34 0 0 Z " fill="#001915" transform="translate(136,192)"/>
<path d="M0 0 C0.66 0 1.32 0 2 0 C-3.13345676 11.89908953 -19.00279082 18.61188602 -29.87890625 24.1875 C-32 25 -32 25 -36 25 C-35.49396008 22.83125748 -35.00016187 21.00032373 -34 19 C-33.2575 19.226875 -32.515 19.45375 -31.75 19.6875 C-28.21793622 20.08887088 -27.74983354 19.0963082 -25 17 C-23.36975939 16.37441173 -21.72233955 15.7921972 -20.0625 15.25 C-14.75499911 13.24302773 -12.80282939 10.85823761 -10 6 C-7.525 6.495 -7.525 6.495 -5 7 C-4.67 5.68 -4.34 4.36 -4 3 C-2.68 2.67 -1.36 2.34 0 2 C0 1.34 0 0.68 0 0 Z " fill="#6AAC8C" transform="translate(212,310)"/>
<path d="M0 0 C0.99 0 1.98 0 3 0 C2.49533203 1.50240234 2.49533203 1.50240234 1.98046875 3.03515625 C0.86396764 6.95424265 0.96076904 10.3650488 1.3125 14.4375 C1.42078125 15.736875 1.5290625 17.03625 1.640625 18.375 C2.02616211 22.26389602 2.44735043 26.13145303 3 30 C3.33 30 3.66 30 4 30 C4 31.98 4 33.96 4 36 C3.505 34.515 3.505 34.515 3 33 C2.01 33 1.02 33 0 33 C-0.185625 32.13375 -0.185625 32.13375 -0.375 31.25 C-0.89444422 29.00807053 -0.89444422 29.00807053 -2.03125 27.23828125 C-3.28109459 24.35053548 -3.19492572 22.07250304 -3.125 18.9375 C-3.10695313 17.89464844 -3.08890625 16.85179687 -3.0703125 15.77734375 C-3.04710938 14.86082031 -3.02390625 13.94429687 -3 13 C-3 12.01 -3 11.02 -3 10 C-3 7.33333333 -3 4.66666667 -3 2 C-2.01 2 -1.02 2 0 2 C0 1.34 0 0.68 0 0 Z " fill="#80B866" transform="translate(92,223)"/>
<path d="M0 0 C0.625 2.0625 0.625 2.0625 1 4 C1.66 4 2.32 4 3 4 C3 4.66 3 5.32 3 6 C4.79005941 6.36220266 6.58212057 6.71452469 8.375 7.0625 C9.37273437 7.25972656 10.37046875 7.45695312 11.3984375 7.66015625 C13.97842539 8.24382952 13.97842539 8.24382952 16 7 C17.4606285 9.64738916 18 10.89448334 18 14 C9.96466892 12.98904728 3.89046397 10.15968102 -3 6 C-3.93199219 5.44183594 -4.86398438 4.88367188 -5.82421875 4.30859375 C-6.54222656 3.87675781 -7.26023437 3.44492187 -8 3 C-7.67 2.01 -7.34 1.02 -7 0 C-2.25 -1.125 -2.25 -1.125 0 0 Z " fill="#76A969" transform="translate(88,321)"/>
<path d="M0 0 C28.05 0 56.1 0 85 0 C84.01 1.98 83.02 3.96 82 6 C81.505 4.515 81.505 4.515 81 3 C79.02 3.66 77.04 4.32 75 5 C75 3.68 75 2.36 75 1 C50.25 1 25.5 1 0 1 C0 0.67 0 0.34 0 0 Z " fill="#537762" transform="translate(133,211)"/>
<path d="M0 0 C0.99 0 1.98 0 3 0 C3 0.66 3 1.32 3 2 C19.5 2 36 2 53 2 C51 4 51 4 48.70944214 4.24050903 C47.75457916 4.23606781 46.79971619 4.23162659 45.81591797 4.22705078 C44.73494843 4.22689972 43.65397888 4.22674866 42.54025269 4.22659302 C41.36939117 4.21627045 40.19852966 4.20594788 38.9921875 4.1953125 C37.79643097 4.1924826 36.60067444 4.18965271 35.36868286 4.18673706 C31.53735481 4.17551305 27.70625778 4.15040431 23.875 4.125 C21.28255545 4.11497308 18.69010725 4.10584673 16.09765625 4.09765625 C9.73169158 4.07556646 3.36586229 4.04206706 -3 4 C-1.6875 2 -1.6875 2 0 0 Z " fill="#3D6E6F" transform="translate(253,263)"/>
<path d="M0 0 C0.42410156 0.37511719 0.84820312 0.75023437 1.28515625 1.13671875 C4.40241473 3.85661241 7.52022842 6.41370208 10.9375 8.75 C11.948125 9.4925 12.95875 10.235 14 11 C14 11.66 14 12.32 14 13 C14.72920654 13.28085449 15.45841309 13.56170898 16.2097168 13.85107422 C18.77960528 14.90925037 21.19113303 16.08100936 23.64453125 17.3828125 C24.48564453 17.82753906 25.32675781 18.27226562 26.19335938 18.73046875 C27.05767578 19.19066406 27.92199219 19.65085937 28.8125 20.125 C29.69615234 20.59292969 30.57980469 21.06085938 31.49023438 21.54296875 C33.66135525 22.69307603 35.8312226 23.84548146 38 25 C33.9345956 26.3551348 32.43279606 25.13692976 28.67578125 23.390625 C24.58945297 21.26692738 20.69271695 18.84356252 16.796875 16.390625 C13.88195255 14.94130601 12.20146777 14.69621109 9 15 C9 14.34 9 13.68 9 13 C8.34 13 7.68 13 7 13 C7 11.35 7 9.7 7 8 C4.03 7.505 4.03 7.505 1 7 C1 6.34 1 5.68 1 5 C0.34 5 -0.32 5 -1 5 C-0.67 3.35 -0.34 1.7 0 0 Z " fill="#072118" transform="translate(66,311)"/>
<path d="M0 0 C0.66666667 2 1.33333333 4 2 6 C1.34 6 0.68 6 0 6 C-0.144375 6.61875 -0.28875 7.2375 -0.4375 7.875 C-1 10 -1 10 -2 12 C-3.98 12 -5.96 12 -8 12 C-8 13.32 -8 14.64 -8 16 C-8.66 16 -9.32 16 -10 16 C-9.67 16.99 -9.34 17.98 -9 19 C-9.5775 19.32613281 -10.155 19.65226562 -10.75 19.98828125 C-11.86375 20.64376953 -11.86375 20.64376953 -13 21.3125 C-13.7425 21.74175781 -14.485 22.17101562 -15.25 22.61328125 C-15.8275 23.07089844 -16.405 23.52851563 -17 24 C-17 24.99 -17 25.98 -17 27 C-17.99 26.67 -18.98 26.34 -20 26 C-19.522024 21.69821597 -17.03348091 19.90159043 -14 17 C-9.01214087 11.58461009 -4.45853595 5.85436939 0 0 Z " fill="#0B2429" transform="translate(230,292)"/>
<path d="M0 0 C-0.71542969 0.38929688 -1.43085937 0.77859375 -2.16796875 1.1796875 C-13.31115326 7.43601619 -23.1455923 14.74311922 -32 24 C-32.33 24 -32.66 24 -33 24 C-33 22.35 -33 20.7 -33 19 C-32.195625 18.731875 -31.39125 18.46375 -30.5625 18.1875 C-29.716875 17.795625 -28.87125 17.40375 -28 17 C-27.67 16.01 -27.34 15.02 -27 14 C-26.01 14 -25.02 14 -24 14 C-23.95875 13.236875 -23.9175 12.47375 -23.875 11.6875 C-23 9 -23 9 -20.1875 7.1875 C-17 6 -17 6 -13 6 C-13 5.34 -13 4.68 -13 4 C-12.34 4 -11.68 4 -11 4 C-11 3.34 -11 2.68 -11 2 C-9.73392393 1.46770674 -8.46189588 0.94955456 -7.1875 0.4375 C-6.47980469 0.14746094 -5.77210937 -0.14257812 -5.04296875 -0.44140625 C-3 -1 -3 -1 0 0 Z " fill="#0C241B" transform="translate(96,145)"/>
<path d="M0 0 C0.66 0.99 1.32 1.98 2 3 C3.32 3 4.64 3 6 3 C7.34164079 3.2981424 8.67851173 3.62243192 10 4 C9.525625 4.433125 9.05125 4.86625 8.5625 5.3125 C6.76313043 7.02309613 6.76313043 7.02309613 6 10 C7.65 10.33 9.3 10.66 11 11 C10.67 13.31 10.34 15.62 10 18 C9.01 18.33 8.02 18.66 7 19 C6.0234375 17.20963542 5.046875 15.41927083 4.0703125 13.62890625 C3.08589976 11.83381685 3.08589976 11.83381685 1 11 C-0.75 8.25 -0.75 8.25 -2 5 C-1.1875 2.125 -1.1875 2.125 0 0 Z " fill="#80BA4F" transform="translate(54,285)"/>
<path d="M0 0 C0.33 0 0.66 0 1 0 C0.98428955 0.85529297 0.9685791 1.71058594 0.95239258 2.59179688 C0.3729458 23.55405597 0.3729458 23.55405597 3.44140625 44.19921875 C3.98971865 46.94844948 3.95438475 48.40230376 3 51 C-1.16262948 40.97184716 -2.33670019 31.18362337 -2.25 20.375 C-2.25773437 19.40304688 -2.26546875 18.43109375 -2.2734375 17.4296875 C-2.25701396 11.32012979 -1.53657491 5.9145939 0 0 Z " fill="#83AB6E" transform="translate(39,219)"/>
<path d="M0 0 C14.52 0 29.04 0 44 0 C42.92643531 4.29425875 42.4915227 4.74740471 39 7 C38.34 6.67 37.68 6.34 37 6 C37.33 5.34 37.66 4.68 38 4 C37.34 3.67 36.68 3.34 36 3 C36.33 2.34 36.66 1.68 37 1 C36.47599609 1.16153564 35.95199219 1.32307129 35.41210938 1.48950195 C30.54240769 2.52012404 25.48688582 2.18590588 20.52783203 2.18530273 C18.50662284 2.18749282 16.48595678 2.20568141 14.46484375 2.22460938 C12.54865234 2.22750977 12.54865234 2.22750977 10.59375 2.23046875 C8.84094727 2.23663208 8.84094727 2.23663208 7.05273438 2.24291992 C4 2 4 2 0 0 Z " fill="#061E1E" transform="translate(132,267)"/>
<path d="M0 0 C4.08378283 0.74250597 8.01939223 1.82923301 12 3 C12 3.66 12 4.32 12 5 C12.99 4.67 13.98 4.34 15 4 C12.97435578 8.20710722 10.5887676 12.1168486 8 16 C7.34 16 6.68 16 6 16 C4.92474806 18.65228812 3.90543849 21.28368454 3 24 C2.01 24.33 1.02 24.66 0 25 C-0.43518641 19.69072575 -0.43518641 19.69072575 0 17 C2.83653151 14.54678356 4.25123496 14 8 14 C8.12375 13.2575 8.2475 12.515 8.375 11.75 C8.95486701 9.19858515 9.73708739 7.2732427 11 5 C10.01 5.33 9.02 5.66 8 6 C7.67 5.34 7.34 4.68 7 4 C3.42464981 2.9238946 3.42464981 2.9238946 0 4 C0 2.68 0 1.36 0 0 Z " fill="#33B6AC" transform="translate(336,116)"/>
<path d="M0 0 C0.99 0.33 1.98 0.66 3 1 C2.60167969 1.44730469 2.20335938 1.89460937 1.79296875 2.35546875 C0.99826172 3.26232422 0.99826172 3.26232422 0.1875 4.1875 C-0.59560547 5.07501953 -0.59560547 5.07501953 -1.39453125 5.98046875 C-10.33809334 17.23064297 -10.93903649 30.58795792 -9.5 44.3125 C-9.335 45.529375 -9.17 46.74625 -9 48 C-9.99 48.495 -9.99 48.495 -11 49 C-11.36696071 46.18865636 -11.71876381 43.37670145 -12.0625 40.5625 C-12.16626953 39.77939453 -12.27003906 38.99628906 -12.37695312 38.18945312 C-13.35949745 29.95640932 -12.71938205 22.94220895 -9.625 15.1875 C-8.99464844 13.56908203 -8.99464844 13.56908203 -8.3515625 11.91796875 C-7.12585707 9.27172032 -5.81258358 7.26194274 -4 5 C-3.649375 4.278125 -3.29875 3.55625 -2.9375 2.8125 C-2 1 -2 1 0 0 Z " fill="#70A06B" transform="translate(105,205)"/>
<path d="M0 0 C1.18797432 0.00212242 1.18797432 0.00212242 2.39994812 0.00428772 C4.91641094 0.00986168 7.43278306 0.02240932 9.94921875 0.03515625 C11.660806 0.04017462 13.37239466 0.04473694 15.08398438 0.04882812 C19.26826383 0.05982257 23.45247594 0.07706918 27.63671875 0.09765625 C28.13171875 1.58265625 28.13171875 1.58265625 28.63671875 3.09765625 C14.77671875 3.09765625 0.91671875 3.09765625 -13.36328125 3.09765625 C-13.36328125 2.43765625 -13.36328125 1.77765625 -13.36328125 1.09765625 C-8.91000488 -0.0147006 -4.55879352 -0.03089246 0 0 Z " fill="#50735C" transform="translate(147.36328125,263.90234375)"/>
<path d="M0 0 C1.97329708 0.01507323 3.9466053 0.02875697 5.91992188 0.04101562 C10.71772629 0.07381405 15.51498837 0.12545087 20.3125 0.1875 C20.3125 0.5175 20.3125 0.8475 20.3125 1.1875 C19.08116333 1.22508423 19.08116333 1.22508423 17.82495117 1.26342773 C14.72541561 1.35961345 11.62599195 1.45876811 8.52661133 1.55981445 C6.54710818 1.62348477 4.56749969 1.68385298 2.58789062 1.74414062 C-9.72395583 1.04431938 -9.72395583 1.04431938 -20.6875 4.1875 C-22.70344582 4.42177778 -24.725974 4.60086124 -26.75 4.75 C-27.85472656 4.83378906 -28.95945312 4.91757813 -30.09765625 5.00390625 C-30.95230469 5.06449219 -31.80695313 5.12507812 -32.6875 5.1875 C-32.6875 4.5275 -32.6875 3.8675 -32.6875 3.1875 C-22.14954323 -0.97728582 -11.11317811 -0.14807637 0 0 Z " fill="#092023" transform="translate(144.6875,132.8125)"/>
<path d="M0 0 C10.89 0 21.78 0 33 0 C32.01 1.32 31.02 2.64 30 4 C29.29335205 3.83701416 28.5867041 3.67402832 27.85864258 3.50610352 C24.92355461 2.98646586 22.24011307 2.88641651 19.26171875 2.90234375 C17.66166992 2.90717773 17.66166992 2.90717773 16.02929688 2.91210938 C14.92650391 2.92048828 13.82371094 2.92886719 12.6875 2.9375 C11.00430664 2.94426758 11.00430664 2.94426758 9.28710938 2.95117188 C6.5246849 2.96292687 3.76237002 2.97935923 1 3 C0.67 2.01 0.34 1.02 0 0 Z " fill="#326D73" transform="translate(240,135)"/>
<path d="M0 0 C1.36125 0.1546875 1.36125 0.1546875 2.75 0.3125 C2.42 0.9725 2.09 1.6325 1.75 2.3125 C0.76 2.6425 -0.23 2.9725 -1.25 3.3125 C-1.91 3.9725 -2.57 4.6325 -3.25 5.3125 C-3.58 5.3125 -3.91 5.3125 -4.25 5.3125 C-4.3325 6.09625 -4.415 6.88 -4.5 7.6875 C-4.7475 8.55375 -4.995 9.42 -5.25 10.3125 C-5.88421875 10.61285156 -6.5184375 10.91320312 -7.171875 11.22265625 C-10.32161976 12.87449608 -10.83691474 15.35519577 -12.125 18.53515625 C-13.25 20.3125 -13.25 20.3125 -15.375 21.05859375 C-16.303125 21.18427734 -16.303125 21.18427734 -17.25 21.3125 C-17.25 21.9725 -17.25 22.6325 -17.25 23.3125 C-17.91 23.3125 -18.57 23.3125 -19.25 23.3125 C-17.76417413 18.83832771 -15.27611249 15.45792123 -12.375 11.8125 C-11.94058594 11.25691406 -11.50617188 10.70132812 -11.05859375 10.12890625 C-10.2020293 9.03569336 -9.34016395 7.94660997 -8.47265625 6.86206055 C-7.32610076 5.40894799 -6.22750215 3.91835626 -5.1328125 2.42578125 C-3.25 0.3125 -3.25 0.3125 0 0 Z " fill="#082B30" transform="translate(251.25,266.6875)"/>
<path d="M0 0 C0.5625 1.9375 0.5625 1.9375 1 4 C0.67 4.33 0.34 4.66 0 5 C21.45 5.33 42.9 5.66 65 6 C65 6.33 65 6.66 65 7 C42.56 7 20.12 7 -3 7 C-2 3 -2 3 0 0 Z " fill="#0F333C" transform="translate(348,128)"/>
<path d="M0 0 C0 0.66 0 1.32 0 2 C-0.6290625 2.12117188 -1.258125 2.24234375 -1.90625 2.3671875 C-6.05677997 3.17979126 -10.16727551 4.01728405 -14.25 5.125 C-17.67006574 5.92301534 -20.50988374 6.17450581 -24 6 C-24 5.34 -24 4.68 -24 4 C-28.95 4 -33.9 4 -39 4 C-39 3.67 -39 3.34 -39 3 C-38.36610352 2.98541748 -37.73220703 2.97083496 -37.07910156 2.95581055 C-21.42651333 2.74863008 -21.42651333 2.74863008 -6.20703125 -0.4765625 C-3.75023215 -1.05923698 -2.36191662 -0.81445401 0 0 Z " fill="#0F2B29" transform="translate(172,339)"/>
<path d="M0 0 C1.11375 0.3403125 1.11375 0.3403125 2.25 0.6875 C0.91666667 2.02083333 -0.41666667 3.35416667 -1.75 4.6875 C-2.36875 5.450625 -2.9875 6.21375 -3.625 7 C-5.75 8.6875 -5.75 8.6875 -9 8.4375 C-10.36125 8.06625 -10.36125 8.06625 -11.75 7.6875 C-11.75 8.3475 -11.75 9.0075 -11.75 9.6875 C-13.73 10.0175 -15.71 10.3475 -17.75 10.6875 C-18.08 9.6975 -18.41 8.7075 -18.75 7.6875 C-17.93015625 7.36136719 -17.1103125 7.03523438 -16.265625 6.69921875 C-15.18796875 6.26222656 -14.1103125 5.82523437 -13 5.375 C-11.93265625 4.94574219 -10.8653125 4.51648438 -9.765625 4.07421875 C-6.7682113 2.82828546 -6.7682113 2.82828546 -4.53125 1 C-2.75 -0.3125 -2.75 -0.3125 0 0 Z " fill="#70AC79" transform="translate(171.75,275.3125)"/>
<path d="M0 0 C-1.54399753 3.28771612 -3.39621687 6.24733837 -5.4375 9.25 C-6.03433594 10.14203125 -6.63117188 11.0340625 -7.24609375 11.953125 C-8.11427734 12.96632812 -8.11427734 12.96632812 -9 14 C-9.99 14 -10.98 14 -12 14 C-12.33 14.66 -12.66 15.32 -13 16 C-13.66 16 -14.32 16 -15 16 C-15 17.32 -15 18.64 -15 20 C-16.32 20.33 -17.64 20.66 -19 21 C-19 20.34 -19 19.68 -19 19 C-18.34 19 -17.68 19 -17 19 C-16.9175 17.88625 -16.835 16.7725 -16.75 15.625 C-16.5025 14.42875 -16.255 13.2325 -16 12 C-14.1875 10.875 -14.1875 10.875 -12 10 C-10.66172696 8.33729713 -9.32810215 6.67083819 -8 5 C-7.01 4.67 -6.02 4.34 -5 4 C-4.67 3.01 -4.34 2.02 -4 1 C-2 0 -2 0 0 0 Z " fill="#41B39C" transform="translate(339,140)"/>
<path d="M0 0 C0 0.99 0 1.98 0 3 C-0.66 3 -1.32 3 -2 3 C-2 3.66 -2 4.32 -2 5 C-2.66 5 -3.32 5 -4 5 C-3.67 5.99 -3.34 6.98 -3 8 C-4.98 8 -6.96 8 -9 8 C-9 8.66 -9 9.32 -9 10 C-10.725227 10.67679658 -12.45538939 11.34102 -14.1875 12 C-15.15042969 12.37125 -16.11335938 12.7425 -17.10546875 13.125 C-19.92182358 13.97636772 -22.08164439 14.17072647 -25 14 C-25 13.34 -25 12.68 -25 12 C-24.23816406 11.76925781 -23.47632813 11.53851563 -22.69140625 11.30078125 C-14.26211715 8.63834661 -7.01502147 5.40219287 0 0 Z " fill="#022234" transform="translate(329,255)"/>
<path d="M0 0 C-1.33333333 2.66666667 -2.66666667 5.33333333 -4 8 C-4.66 8 -5.32 8 -6 8 C-6.2475 8.78375 -6.495 9.5675 -6.75 10.375 C-8.18104431 13.38019304 -8.94745511 13.88998368 -12 15 C-12.99 15.33 -13.98 15.66 -15 16 C-14.37215066 13.07003641 -13.71202908 10.48244217 -12 8 C-11.175 7.855625 -10.35 7.71125 -9.5 7.5625 C-8.675 7.376875 -7.85 7.19125 -7 7 C-5.83046584 4.57616923 -5.83046584 4.57616923 -5 2 C-2 0 -2 0 0 0 Z " fill="#53B38A" transform="translate(255,256)"/>
<path d="M0 0 C1.32 0.33 2.64 0.66 4 1 C3.3125 2.875 3.3125 2.875 2 5 C1.195625 5.28875 0.39125 5.5775 -0.4375 5.875 C-4.05414459 7.46279519 -4.47054076 9.40909571 -6 13 C-6.72073715 14.46251773 -7.45009431 15.92081535 -8.1875 17.375 C-8.53167969 18.06335938 -8.87585938 18.75171875 -9.23046875 19.4609375 C-9.48441406 19.96882813 -9.73835938 20.47671875 -10 21 C-10.33 21 -10.66 21 -11 21 C-10.67 16.71 -10.34 12.42 -10 8 C-8.68 8 -7.36 8 -6 8 C-4.21005931 6.25925466 -4.21005931 6.25925466 -2.75 4 C-2.22921875 3.2575 -1.7084375 2.515 -1.171875 1.75 C-0.78515625 1.1725 -0.3984375 0.595 0 0 Z " fill="#7BB95E" transform="translate(106,200)"/>
<path d="M0 0 C1.29421875 -0.00257813 2.5884375 -0.00515625 3.921875 -0.0078125 C7.25 0.125 7.25 0.125 10.25 1.125 C10.25 1.785 10.25 2.445 10.25 3.125 C1.67 3.125 -6.91 3.125 -15.75 3.125 C-15.42 2.465 -15.09 1.805 -14.75 1.125 C-9.82569669 0.13763969 -5.0110426 -0.01006233 0 0 Z " fill="#69B482" transform="translate(194.75,187.875)"/>
<path d="M0 0 C0.99 0.33 1.98 0.66 3 1 C2.50628906 1.35191406 2.01257813 1.70382813 1.50390625 2.06640625 C-2.18723404 4.91088659 -3.80471502 6.19282208 -4.9375 10.875 C-4.958125 11.90625 -4.97875 12.9375 -5 14 C-5.7425 14.12375 -6.485 14.2475 -7.25 14.375 C-9.80141485 14.95486701 -11.7267573 15.73708739 -14 17 C-12.51131293 12.39860359 -10.25370145 9.49772906 -7 6 C-6.34 6 -5.68 6 -5 6 C-4.731875 5.38125 -4.46375 4.7625 -4.1875 4.125 C-3 2 -3 2 0 0 Z " fill="#51A796" transform="translate(285,122)"/>
<path d="M0 0 C1.85625 0.6496875 1.85625 0.6496875 3.75 1.3125 C12.01207058 4.05784944 20.32601815 6.16596328 29 7 C29 7.33 29 7.66 29 8 C18.91498119 8.57592113 9.87122075 8.69490663 1 3 C0.67 2.01 0.34 1.02 0 0 Z " fill="#09241E" transform="translate(115,276)"/>
<path d="M0 0 C15.84 0 31.68 0 48 0 C48 0.33 48 0.66 48 1 C47.1028125 1.02505615 46.205625 1.0501123 45.28125 1.07592773 C41.91900569 1.17166313 38.55689888 1.27085629 35.19482422 1.37231445 C33.74597085 1.41534491 32.2970771 1.45703893 30.84814453 1.49731445 C21.430805 1.70203465 21.430805 1.70203465 12.0625 2.59765625 C10.5465625 2.79681641 10.5465625 2.79681641 9 3 C8.67 2.67 8.34 2.34 8 2 C6.65252916 1.76924918 5.29622435 1.58846937 3.9375 1.4375 C2.638125 1.293125 1.33875 1.14875 0 1 C0 0.67 0 0.34 0 0 Z " fill="#3F6B64" transform="translate(192,135)"/>
<path d="M0 0 C1.89095524 3.55108965 3.29339931 7.22913739 4.6875 11 C5.14511719 12.216875 5.60273437 13.43375 6.07421875 14.6875 C6.94299301 17.79602561 7.2034842 19.08246255 6 22 C5.67 21.01 5.34 20.02 5 19 C3.68 19 2.36 19 1 19 C0.17648136 12.61773055 -0.12086218 6.43255401 0 0 Z " fill="#091D1E" transform="translate(39,262)"/>
<path d="M0 0 C7.59 0 15.18 0 23 0 C19 7 19 7 16 9 C16.33 6.36 16.66 3.72 17 1 C16.1646875 1.12568359 16.1646875 1.12568359 15.3125 1.25390625 C9.94208892 1.97056584 5.34616568 1.87482711 0 1 C0 0.67 0 0.34 0 0 Z " fill="#011E1E" transform="translate(208,192)"/>
<path d="M0 0 C2.17984425 0.36623727 4.34554055 0.81837941 6.5 1.3125 C7.6859375 1.57675781 8.871875 1.84101562 10.09375 2.11328125 C11.0528125 2.40589844 12.011875 2.69851562 13 3 C13.33 3.66 13.66 4.32 14 5 C5.42 5 -3.16 5 -12 5 C-11.34 4.34 -10.68 3.68 -10 3 C-9.01 3 -8.02 3 -7 3 C-7 2.34 -7 1.68 -7 1 C-5.5459375 1.0309375 -5.5459375 1.0309375 -4.0625 1.0625 C-1.12534105 1.35618499 -1.12534105 1.35618499 0 0 Z " fill="#012032" transform="translate(319,105)"/>
<path d="M0 0 C0.33 0.99 0.66 1.98 1 3 C-0.91149668 4.0098473 -2.82941569 5.00754495 -4.75 6 C-5.81734375 6.556875 -6.8846875 7.11375 -7.984375 7.6875 C-11 9 -11 9 -15 9 C-14.49396008 6.83125748 -14.00016187 5.00032373 -13 3 C-12.2575 3.226875 -11.515 3.45375 -10.75 3.6875 C-7.97331657 4.3025209 -7.97331657 4.3025209 -5.9375 2.625 C-5.298125 2.08875 -4.65875 1.5525 -4 1 C-1.75 0.3125 -1.75 0.3125 0 0 Z " fill="#6FB184" transform="translate(191,326)"/>
<path d="M0 0 C0.99 0 1.98 0 3 0 C2.67 1.32 2.34 2.64 2 4 C1.34 4 0.68 4 0 4 C-0.268125 4.55171875 -0.53625 5.1034375 -0.8125 5.671875 C-2.12796584 8.25088039 -3.53849162 10.75082068 -5 13.25 C-5.515625 14.14203125 -6.03125 15.0340625 -6.5625 15.953125 C-7.036875 16.62859375 -7.51125 17.3040625 -8 18 C-8.66 18 -9.32 18 -10 18 C-10 18.66 -10 19.32 -10 20 C-10.66 20 -11.32 20 -12 20 C-12 16 -12 16 -9.75 13.625 C-8.8425 12.75875 -7.935 11.8925 -7 11 C-4.69518355 7.77325697 -2.71793577 4.56802044 -1 1 C-0.67 0.67 -0.34 0.34 0 0 Z " fill="#52B296" transform="translate(275,224)"/>
<path d="M0 0 C0.99 0.66 1.98 1.32 3 2 C2 5 2 5 0 6 C-0.33 6.99 -0.66 7.98 -1 9 C-1.99 9.66 -2.98 10.32 -4 11 C-5.01866229 12.65532623 -6.01810813 14.32260138 -7 16 C-8.6875 17.8125 -8.6875 17.8125 -10 19 C-10 17.02 -10 15.04 -10 13 C-9.01 13 -8.02 13 -7 13 C-6.34 10.69 -5.68 8.38 -5 6 C-4.01 6 -3.02 6 -2 6 C-1.855625 5.195625 -1.71125 4.39125 -1.5625 3.5625 C-1 1 -1 1 0 0 Z " fill="#3E794D" transform="translate(202,227)"/>
<path d="M0 0 C0.99 0 1.98 0 3 0 C3.33 0.99 3.66 1.98 4 3 C3.67 3.66 3.34 4.32 3 5 C2.34 5 1.68 5 1 5 C0.67 5.99 0.34 6.98 0 8 C-0.66 7.67 -1.32 7.34 -2 7 C-2.2475 7.5775 -2.495 8.155 -2.75 8.75 C-4.18299988 11.32939979 -5.78424676 13.06121592 -8 15 C-8.66 15 -9.32 15 -10 15 C-8.37996913 11.47454422 -6.30690498 8.40972097 -4.0625 5.25 C-3.37285156 4.26515625 -2.68320312 3.2803125 -1.97265625 2.265625 C-1.32167969 1.51796875 -0.67070312 0.7703125 0 0 Z " fill="#368362" transform="translate(340,139)"/>
<path d="M0 0 C3.96 0 7.92 0 12 0 C12.33 1.32 12.66 2.64 13 4 C8.38 4 3.76 4 -1 4 C-0.67 2.68 -0.34 1.36 0 0 Z " fill="#6CBC5E" transform="translate(131,138)"/>
<path d="M0 0 C0.99 0.33 1.98 0.66 3 1 C2.67 2.98 2.34 4.96 2 7 C-2.03520597 5.41037341 -6.01811282 3.71767682 -10 2 C-6.31884463 -0.45410358 -4.34706402 -0.23287843 0 0 Z " fill="#427C4A" transform="translate(181,137)"/>
<path d="M0 0 C0.42410156 0.37511719 0.84820312 0.75023437 1.28515625 1.13671875 C5.36517338 4.69664579 9.5513476 7.91317997 14 11 C12.02 11.99 12.02 11.99 10 13 C8.5 11.625 8.5 11.625 7 10 C7 9.34 7 8.68 7 8 C4.03 7.505 4.03 7.505 1 7 C1 6.34 1 5.68 1 5 C0.34 5 -0.32 5 -1 5 C-0.67 3.35 -0.34 1.7 0 0 Z " fill="#0F2A22" transform="translate(66,311)"/>
<path d="M0 0 C0.99 0.33 1.98 0.66 3 1 C2.67 1.66 2.34 2.32 2 3 C1.9603287 4.66619446 1.95615553 6.33391013 2 8 C2.66 8 3.32 8 4 8 C4.33 10.64 4.66 13.28 5 16 C5.66 16 6.32 16 7 16 C7 17.65 7 19.3 7 21 C6.34 21 5.68 21 5 21 C4.67 19.35 4.34 17.7 4 16 C3.01 16 2.02 16 1 16 C0.67 10.72 0.34 5.44 0 0 Z " fill="#85B953" transform="translate(41,256)"/>
<path d="M0 0 C1.24716797 0.00322266 2.49433594 0.00644531 3.77929688 0.00976562 C5.07287109 0.01814453 6.36644531 0.02652344 7.69921875 0.03515625 C9.66858398 0.04192383 9.66858398 0.04192383 11.67773438 0.04882812 C14.91410885 0.06059676 18.15039053 0.07703865 21.38671875 0.09765625 C21.38671875 0.42765625 21.38671875 0.75765625 21.38671875 1.09765625 C13.46671875 1.09765625 5.54671875 1.09765625 -2.61328125 1.09765625 C-2.61328125 1.75765625 -2.61328125 2.41765625 -2.61328125 3.09765625 C-5.58328125 3.09765625 -8.55328125 3.09765625 -11.61328125 3.09765625 C-11.61328125 2.43765625 -11.61328125 1.77765625 -11.61328125 1.09765625 C-7.68039761 0.16677716 -4.03673962 -0.0184326 0 0 Z " fill="#7CB17B" transform="translate(130.61328125,135.90234375)"/>
<path d="M0 0 C8.91 0.66 17.82 1.32 27 2 C25 4 25 4 22.93701172 4.22705078 C21.69588623 4.21134033 21.69588623 4.21134033 20.4296875 4.1953125 C19.53378906 4.18886719 18.63789063 4.18242187 17.71484375 4.17578125 C16.77769531 4.15902344 15.84054688 4.14226562 14.875 4.125 C13.93011719 4.11597656 12.98523438 4.10695313 12.01171875 4.09765625 C9.67422708 4.07404522 7.33723877 4.04111516 5 4 C5 3.34 5 2.68 5 2 C3.35 1.67 1.7 1.34 0 1 C0 0.67 0 0.34 0 0 Z " fill="#78B574" transform="translate(126,284)"/>
<path d="M0 0 C0.33 0.99 0.66 1.98 1 3 C0.67 3.66 0.34 4.32 0 5 C-0.66 5 -1.32 5 -2 5 C-2.2578125 5.55300781 -2.515625 6.10601562 -2.78125 6.67578125 C-4.17409717 9.33201223 -5.7848297 11.72739345 -7.5 14.1875 C-8.1084375 15.06792969 -8.716875 15.94835937 -9.34375 16.85546875 C-11 19 -11 19 -13 20 C-12.67 18.35 -12.34 16.7 -12 15 C-11.34 15 -10.68 15 -10 15 C-9.63261719 13.92685547 -9.63261719 13.92685547 -9.2578125 12.83203125 C-7.84640324 9.65416879 -6.08718481 7.36353001 -3.875 4.6875 C-3.15054687 3.80449219 -2.42609375 2.92148438 -1.6796875 2.01171875 C-1.12539063 1.34785156 -0.57109375 0.68398437 0 0 Z " fill="#1E796F" transform="translate(269,137)"/>
<path d="M0 0 C0 0.66 0 1.32 0 2 C-4.18717947 4.39267398 -7.1562272 5.63179645 -12 5 C-14.375 3.5 -14.375 3.5 -16 2 C-13.0288372 1.0096124 -10.5469614 0.69834696 -7.4375 0.4375 C-6.46683594 0.35371094 -5.49617188 0.26992187 -4.49609375 0.18359375 C-3.00018781 0.07356624 -1.49994688 0 0 0 Z " fill="#3C716C" transform="translate(382,184)"/>
<path d="M0 0 C0 3.31934673 -0.43709146 4.02487607 -2.3125 6.625 C-2.74175781 7.23601562 -3.17101563 7.84703125 -3.61328125 8.4765625 C-5 10 -5 10 -8 11 C-8.99 12.485 -8.99 12.485 -10 14 C-10.99 14 -11.98 14 -13 14 C-12.67 12.02 -12.34 10.04 -12 8 C-10.948125 7.79375 -9.89625 7.5875 -8.8125 7.375 C-4.35592764 6.14310195 -2.64156418 3.68218037 0 0 Z " fill="#0B1B2E" transform="translate(61,169)"/>
<path d="M0 0 C2.02910711 0.25327449 4.04962145 0.57730068 6.0625 0.9375 C7.16722656 1.13214844 8.27195312 1.32679688 9.41015625 1.52734375 C10.69212891 1.76130859 10.69212891 1.76130859 12 2 C12 2.33 12 2.66 12 3 C4.08 3.33 -3.84 3.66 -12 4 C-10.68 3.67 -9.36 3.34 -8 3 C-8 2.34 -8 1.68 -8 1 C-6.865625 1.020625 -5.73125 1.04125 -4.5625 1.0625 C-1.18424326 1.41577477 -1.18424326 1.41577477 0 0 Z " fill="#517355" transform="translate(317,188)"/>
<path d="M0 0 C-1.38788802 1.30020011 -2.78569258 2.5898193 -4.1875 3.875 C-4.96480469 4.59429687 -5.74210937 5.31359375 -6.54296875 6.0546875 C-8.97689776 7.9817092 -11.07536646 9.01300111 -14 10 C-13.67 8.35 -13.34 6.7 -13 5 C-11.35 4.67 -9.7 4.34 -8 4 C-7.67 3.01 -7.34 2.02 -7 1 C-4.05697101 -0.96201933 -3.48011144 -1.16003715 0 0 Z " fill="#3B6C71" transform="translate(397,175)"/>
<path d="M0 0 C1.88671875 0.23046875 1.88671875 0.23046875 4 1 C5.08203125 2.92578125 5.08203125 2.92578125 5.8125 5.3125 C6.06644531 6.09238281 6.32039063 6.87226563 6.58203125 7.67578125 C7.02792519 10.15528491 6.79557487 11.63492369 6 14 C0 3.6 0 3.6 0 0 Z " fill="#08231E" transform="translate(97,253)"/>
<path d="M0 0 C0.66 0.66 1.32 1.32 2 2 C1.96712417 4.72869407 1.43602229 7.2966618 1 10 C0.01 10.33 -0.98 10.66 -2 11 C-3.60725635 7.78548731 -3.05748185 4.56387464 -3 1 C-2.01 0.67 -1.02 0.34 0 0 Z " fill="#54773E" transform="translate(118,240)"/>
<path d="M0 0 C2.97 0 5.94 0 9 0 C9 0.99 9 1.98 9 3 C4.545 4.485 4.545 4.485 0 6 C0 4.02 0 2.04 0 0 Z " fill="#73B75C" transform="translate(112,192)"/>
<path d="M0 0 C0.99 0.33 1.98 0.66 3 1 C2.62488281 1.4125 2.24976562 1.825 1.86328125 2.25 C-1.95796035 6.56213158 -5.08513088 11.03440438 -8 16 C-8.33 15.34 -8.66 14.68 -9 14 C-7.8125 11.3125 -7.8125 11.3125 -6 8 C-5.66226563 7.36835938 -5.32453125 6.73671875 -4.9765625 6.0859375 C-2.26558074 1.13279037 -2.26558074 1.13279037 0 0 Z " fill="#7DAC73" transform="translate(105,205)"/>
<path d="M0 0 C2.64 0 5.28 0 8 0 C8 0.66 8 1.32 8 2 C8.804375 2.2475 9.60875 2.495 10.4375 2.75 C13 4 13 4 13.8125 6.125 C13.874375 6.74375 13.93625 7.3625 14 8 C9.02790438 6.23570801 4.56561939 3.6060834 0 1 C0 0.67 0 0.34 0 0 Z " fill="#3D8051" transform="translate(184,144)"/>
<path d="M0 0 C5.56890517 0.47986031 10.67067568 1.29915181 16 3 C15.34 3.66 14.68 4.32 14 5 C11.27130593 4.96712417 8.7033382 4.43602229 6 4 C6 3.34 6 2.68 6 2 C4.35 2 2.7 2 1 2 C0.67 1.34 0.34 0.68 0 0 Z " fill="#071F1B" transform="translate(106,338)"/>
<path d="M0 0 C0.66 0.33 1.32 0.66 2 1 C1.979375 1.78375 1.95875 2.5675 1.9375 3.375 C1.81315937 5.98114961 1.81315937 5.98114961 3 8 C0.36 8.33 -2.28 8.66 -5 9 C-3.7508258 5.54074837 -2.32472205 2.85306797 0 0 Z " fill="#63B48A" transform="translate(221,207)"/>
<path d="M0 0 C0.91662607 2.49277576 1.17798858 3.58625462 0.109375 6.0703125 C-0.33921875 6.74835938 -0.7878125 7.42640625 -1.25 8.125 C-1.68828125 8.80820313 -2.1265625 9.49140625 -2.578125 10.1953125 C-4 12 -4 12 -7 14 C-6.67 12.02 -6.34 10.04 -6 8 C-5.34 8 -4.68 8 -4 8 C-3.71125 7.236875 -3.4225 6.47375 -3.125 5.6875 C-2 3 -2 3 0 0 Z " fill="#3F835A" transform="translate(313,176)"/>
<path d="M0 0 C0.99 0 1.98 0 3 0 C2.54917531 1.46067199 2.08906463 2.91848032 1.625 4.375 C1.36976562 5.18710938 1.11453125 5.99921875 0.8515625 6.8359375 C0 9 0 9 -2 11 C-2.91058531 7.92677456 -3.08886184 5.19902639 -3 2 C-2.01 2 -1.02 2 0 2 C0 1.34 0 0.68 0 0 Z " fill="#7BB85E" transform="translate(92,223)"/>
<path d="M0 0 C0 0.99 0 1.98 0 3 C-0.66 3 -1.32 3 -2 3 C-2 3.66 -2 4.32 -2 5 C-2.66 5 -3.32 5 -4 5 C-3.67 5.99 -3.34 6.98 -3 8 C-4.98 8 -6.96 8 -9 8 C-9 8.66 -9 9.32 -9 10 C-10.32 9.34 -11.64 8.68 -13 8 C-12.39671875 7.67386719 -11.7934375 7.34773438 -11.171875 7.01171875 C-10.37265625 6.57472656 -9.5734375 6.13773437 -8.75 5.6875 C-7.96109375 5.25824219 -7.1721875 4.82898438 -6.359375 4.38671875 C-4.10272866 3.0603786 -2.06001403 1.61115776 0 0 Z " fill="#07283C" transform="translate(329,255)"/>
<path d="M0 0 C0.33 0 0.66 0 1 0 C1.125 2.875 1.125 2.875 1 6 C0.34 6.66 -0.32 7.32 -1 8 C-1.16687448 10.58354218 -1.16687448 10.58354218 -1 13 C-1.99 13 -2.98 13 -4 13 C-4.625 10.1875 -4.625 10.1875 -5 7 C-4.34 6.01 -3.68 5.02 -3 4 C-2.34 4 -1.68 4 -1 4 C-0.67 2.68 -0.34 1.36 0 0 Z " fill="#142438" transform="translate(38,256)"/>
<path d="M0 0 C0.33 0.99 0.66 1.98 1 3 C-0.21484375 4.82421875 -0.21484375 4.82421875 -1.9375 6.6875 C-2.50339844 7.31011719 -3.06929687 7.93273437 -3.65234375 8.57421875 C-4.09707031 9.04472656 -4.54179687 9.51523438 -5 10 C-5.33 9.01 -5.66 8.02 -6 7 C-6.99 7.66 -7.98 8.32 -9 9 C-8.34 7.68 -7.68 6.36 -7 5 C-6.34 5 -5.68 5 -5 5 C-4.67 3.68 -4.34 2.36 -4 1 C-3.67 1.99 -3.34 2.98 -3 4 C-2.01 2.68 -1.02 1.36 0 0 Z " fill="#5BAB76" transform="translate(206,231)"/>
<path d="M0 0 C-0.825 0.598125 -1.65 1.19625 -2.5 1.8125 C-3.325 2.534375 -4.15 3.25625 -5 4 C-5 4.99 -5 5.98 -5 7 C-7.66666667 7 -10.33333333 7 -13 7 C-11.78521149 5.81836949 -10.55247592 4.65517165 -9.3125 3.5 C-8.28576172 2.52546875 -8.28576172 2.52546875 -7.23828125 1.53125 C-4.59343628 -0.27813784 -3.13837611 -0.3077917 0 0 Z " fill="#42B699" transform="translate(294,121)"/>
<path d="M0 0 C0.66 0.33 1.32 0.66 2 1 C0.68 3.31 -0.64 5.62 -2 8 C-4.31 8 -6.62 8 -9 8 C-6.17493137 5.0702992 -3.21203935 2.49825283 0 0 Z " fill="#133430" transform="translate(206,318)"/>
<path d="M0 0 C1.32 0 2.64 0 4 0 C4 0.66 4 1.32 4 2 C5.32 2 6.64 2 8 2 C8 3.32 8 4.64 8 6 C4.62537285 5.45276317 2.91765 4.9451 0 3 C0 2.01 0 1.02 0 0 Z " fill="#3C8058" transform="translate(200,152)"/>
<path d="M0 0 C0.66666667 2 1.33333333 4 2 6 C4.97 6.495 4.97 6.495 8 7 C8 7.99 8 8.98 8 10 C2.5388601 9.11917098 2.5388601 9.11917098 0 8 C-1.5 4.875 -1.5 4.875 -2 2 C-1.34 1.34 -0.68 0.68 0 0 Z " fill="#7EBB54" transform="translate(71,305)"/>
<path d="M0 0 C2.4932534 0.99730136 3.77467439 1.65074531 5.25 3.9375 C6 6 6 6 6 9 C4.35 8.67 2.7 8.34 1 8 C0.67 5.36 0.34 2.72 0 0 Z " fill="#7CBB59" transform="translate(96,263)"/>
<path d="M0 0 C2.1519437 3.22791555 2.20086443 4.28400809 2 8 C0.02 8 -1.96 8 -4 8 C-3.40072174 4.64404172 -2.15377564 2.62198774 0 0 Z " fill="#217275" transform="translate(340,232)"/>
<path d="M0 0 C2.31 0 4.62 0 7 0 C5 1.33333333 3 2.66666667 1 4 C0.01 3.67 -0.98 3.34 -2 3 C-1.34 3 -0.68 3 0 3 C0 2.01 0 1.02 0 0 Z M-5 4 C-4.01 4.33 -3.02 4.66 -2 5 C-2.66 6.32 -3.32 7.64 -4 9 C-4.99 8.67 -5.98 8.34 -7 8 C-6.34 6.68 -5.68 5.36 -5 4 Z " fill="#7CB968" transform="translate(106,141)"/>
<path d="M0 0 C1.68373405 3.3674681 2.68218415 6.15015766 3.625 9.75 C3.88539062 10.73484375 4.14578125 11.7196875 4.4140625 12.734375 C4.60742188 13.48203125 4.80078125 14.2296875 5 15 C4.34 15 3.68 15 3 15 C2.67 13.35 2.34 11.7 2 10 C1.34 10 0.68 10 0 10 C0 6.7 0 3.4 0 0 Z " fill="#122D1F" transform="translate(39,262)"/>
<path d="M0 0 C4.24064972 3.81658475 5.78102118 7.51459532 7 13 C4.04415849 10.24800963 1.81234853 7.62469707 0 4 C0 2.68 0 1.36 0 0 Z " fill="#193127" transform="translate(54,296)"/>
<path d="M0 0 C3 3.625 3 3.625 3 7 C0.69 6.34 -1.62 5.68 -4 5 C-4 4.01 -4 3.02 -4 2 C-3.01 2 -2.02 2 -1 2 C-0.67 1.34 -0.34 0.68 0 0 Z " fill="#7EB969" transform="translate(103,328)"/>
<path d="M0 0 C5.75 0.75 5.75 0.75 8 3 C10.65537372 3.56520003 13.29144713 3.73788198 16 4 C16 4.33 16 4.66 16 5 C4.89635502 5.38808856 4.89635502 5.38808856 1 3 C0.67 2.01 0.34 1.02 0 0 Z " fill="#11232B" transform="translate(128,265)"/>
<path d="M0 0 C0.99 0 1.98 0 3 0 C3.99 1.98 4.98 3.96 6 6 C6.66 5.67 7.32 5.34 8 5 C7.625 6.9375 7.625 6.9375 7 9 C6.01 9.495 6.01 9.495 5 10 C4.16121545 8.71186658 3.32913217 7.41936744 2.5 6.125 C2.0359375 5.40570313 1.571875 4.68640625 1.09375 3.9453125 C0 2 0 2 0 0 Z " fill="#2C7B5D" transform="translate(227,180)"/>
<path d="M0 0 C1.27617187 0.00483398 1.27617187 0.00483398 2.578125 0.00976562 C3.46757812 0.01814453 4.35703125 0.02652344 5.2734375 0.03515625 C6.170625 0.03966797 7.0678125 0.04417969 7.9921875 0.04882812 C10.21100398 0.06063034 12.42968768 0.0770947 14.6484375 0.09765625 C14.6484375 0.42765625 14.6484375 0.75765625 14.6484375 1.09765625 C4.2534375 2.08765625 4.2534375 2.08765625 -6.3515625 3.09765625 C-6.3515625 2.43765625 -6.3515625 1.77765625 -6.3515625 1.09765625 C-4.00303722 -0.07660639 -2.61382185 -0.01742548 0 0 Z " fill="#0C404A" transform="translate(310.3515625,108.90234375)"/>
<path d="M0 0 C0.66 0 1.32 0 2 0 C2.1875 2.875 2.1875 2.875 2 6 C1.01 6.66 0.02 7.32 -1 8 C-1.33 7.34 -1.66 6.68 -2 6 C-2.99 6.66 -3.98 7.32 -5 8 C-3.63055898 5.05043472 -2.12169591 2.47531189 0 0 Z " fill="#33846C" transform="translate(261,248)"/>
<path d="M0 0 C1.98 0.495 1.98 0.495 4 1 C3.67 1.99 3.34 2.98 3 4 C5.97 4.495 5.97 4.495 9 5 C8.67 5.66 8.34 6.32 8 7 C3.545 6.01 3.545 6.01 -1 5 C-1 2 -1 2 0 0 Z " fill="#0E3245" transform="translate(332,106)"/>
<path d="M0 0 C1.98 0.495 1.98 0.495 4 1 C3.67 1.66 3.34 2.32 3 3 C5.475 3.99 5.475 3.99 8 5 C7.34 5.66 6.68 6.32 6 7 C2.535 5.02 2.535 5.02 -1 3 C-0.67 2.01 -0.34 1.02 0 0 Z " fill="#74A66B" transform="translate(81,321)"/>
<path d="M0 0 C3.75376152 1.25125384 4.24073289 2.5652404 6 6 C6 6.66 6 7.32 6 8 C6.99 8 7.98 8 9 8 C8.67 9.32 8.34 10.64 8 12 C6.84906075 10.5665848 5.70441965 9.12811091 4.5625 7.6875 C3.92441406 6.88699219 3.28632812 6.08648437 2.62890625 5.26171875 C1 3 1 3 0 0 Z " fill="#86AB74" transform="translate(55,296)"/>
<path d="M0 0 C1.66926454 0.97473126 3.33535642 1.95489789 5 2.9375 C6.3921875 3.75541016 6.3921875 3.75541016 7.8125 4.58984375 C8.534375 5.05519531 9.25625 5.52054687 10 6 C10 6.33 10 6.66 10 7 C6.6875 7.25 6.6875 7.25 3 7 C1.0625 5.1875 1.0625 5.1875 0 3 C0 2.01 0 1.02 0 0 Z " fill="#78A975" transform="translate(110,274)"/>
<path d="M0 0 C3 1 3 1 4.75 3.4375 C5.36875 4.7059375 5.36875 4.7059375 6 6 C5.67 6.66 5.34 7.32 5 8 C3.35 7.67 1.7 7.34 0 7 C0 4.69 0 2.38 0 0 Z " fill="#80B569" transform="translate(107,273)"/>
<path d="M0 0 C2.64 0 5.28 0 8 0 C7.34 1.65 6.68 3.3 6 5 C5.67 4.01 5.34 3.02 5 2 C3.02 2.66 1.04 3.32 -1 4 C-0.67 2.68 -0.34 1.36 0 0 Z " fill="#42795E" transform="translate(209,212)"/>
<path d="M0 0 C0.33 0.66 0.66 1.32 1 2 C0 5 0 5 -2 6 C-2.65213292 8.02463255 -2.65213292 8.02463255 -3 10 C-4.32 9.67 -5.64 9.34 -7 9 C-4.69 6.03 -2.38 3.06 0 0 Z " fill="#4D9F7E" transform="translate(235,187)"/>
<path d="M0 0 C-1.65 1.65 -3.3 3.3 -5 5 C-5.33 4.34 -5.66 3.68 -6 3 C-6.66 3 -7.32 3 -8 3 C-8 2.34 -8 1.68 -8 1 C-3.375 -1.125 -3.375 -1.125 0 0 Z " fill="#10292E" transform="translate(170,274)"/>
<path d="M0 0 C0.66 0.99 1.32 1.98 2 3 C1.01 3.99 0.02 4.98 -1 6 C-1.33 4.68 -1.66 3.36 -2 2 C-1.34 2 -0.68 2 0 2 C0 1.34 0 0.68 0 0 Z M-4 7 C-3.34 7 -2.68 7 -2 7 C-2.66 8.65 -3.32 10.3 -4 12 C-4.66 11.34 -5.32 10.68 -6 10 C-5.34 9.01 -4.68 8.02 -4 7 Z " fill="#84B85A" transform="translate(61,173)"/>
<path d="M0 0 C1.32 0 2.64 0 4 0 C3.67 1.32 3.34 2.64 3 4 C2.34 4 1.68 4 1 4 C1 5.32 1 6.64 1 8 C-0.32 8.33 -1.64 8.66 -3 9 C-3 8.34 -3 7.68 -3 7 C-2.34 7 -1.68 7 -1 7 C-0.67 4.69 -0.34 2.38 0 0 Z " fill="#3CB8A4" transform="translate(323,152)"/>
<path d="M0 0 C-1 2 -1 2 -2.5625 2.625 C-6.06398181 3.16368951 -9.45806833 3.05903219 -13 3 C-8.24109471 0.62054735 -5.45161235 -0.10095578 0 0 Z " fill="#72AE83" transform="translate(173,336)"/>
<path d="M0 0 C0.66 0 1.32 0 2 0 C2.53229326 1.26607607 3.05044544 2.53810412 3.5625 3.8125 C3.85253906 4.52019531 4.14257812 5.22789062 4.44140625 5.95703125 C5 8 5 8 4 11 C3.32591692 9.73308493 2.66099503 8.46129251 2 7.1875 C1.62875 6.47980469 1.2575 5.77210938 0.875 5.04296875 C0 3 0 3 0 0 Z " fill="#85AC6E" transform="translate(43,272)"/>
<path d="M0 0 C0.66 0.33 1.32 0.66 2 1 C1.67 3.31 1.34 5.62 1 8 C0.01 8 -0.98 8 -2 8 C-1.125 2.25 -1.125 2.25 0 0 Z " fill="#296974" transform="translate(343,227)"/>
<path d="M0 0 C0.66 1.32 1.32 2.64 2 4 C0.68 5.32 -0.64 6.64 -2 8 C-2.99 7.67 -3.98 7.34 -5 7 C-3.35 4.69 -1.7 2.38 0 0 Z " fill="#749E60" transform="translate(58,175)"/>
<path d="M0 0 C3.79588866 0.54226981 5.47211993 2.20127563 8 5 C7.67 5.99 7.34 6.98 7 8 C5.83035398 6.8572081 4.66435444 5.71068285 3.5 4.5625 C2.8503125 3.92441406 2.200625 3.28632813 1.53125 2.62890625 C0 1 0 1 0 0 Z " fill="#80AC73" transform="translate(66,310)"/>
<path d="M0 0 C0.99 0.66 1.98 1.32 3 2 C4.9896995 2.39013716 6.99019869 2.73202649 9 3 C8.34 3.66 7.68 4.32 7 5 C2.75534029 4.72317437 0.18382329 3.81645906 -3 1 C-2.01 0.67 -1.02 0.34 0 0 Z " fill="#496851" transform="translate(127,261)"/>
<path d="M0 0 C3 1 3 1 6 3 C5.67 4.32 5.34 5.64 5 7 C4.01 6.34 3.02 5.68 2 5 C2 4.34 2 3.68 2 3 C1.34 3 0.68 3 0 3 C0 2.01 0 1.02 0 0 Z " fill="#4A6853" transform="translate(118,255)"/>
<path d="M0 0 C0.99 0.33 1.98 0.66 3 1 C0.69 3.64 -1.62 6.28 -4 9 C-4.33 8.01 -4.66 7.02 -5 6 C-3.59554165 3.7363436 -1.8032087 1.9791315 0 0 Z " fill="#51B191" transform="translate(261,245)"/>
<path d="M0 0 C0.33 0 0.66 0 1 0 C0.67 2.31 0.34 4.62 0 7 C-1.65 7 -3.3 7 -5 7 C-4.19152271 5.83054208 -3.37810888 4.66449539 -2.5625 3.5 C-2.11003906 2.8503125 -1.65757812 2.200625 -1.19140625 1.53125 C-0.79824219 1.0259375 -0.40507812 0.520625 0 0 Z " fill="#0C323B" transform="translate(302,192)"/>
<path d="M0 0 C-1.4317616 0.69937202 -2.87067032 1.38412718 -4.3125 2.0625 C-5.51326172 2.63677734 -5.51326172 2.63677734 -6.73828125 3.22265625 C-9 4 -9 4 -12 3 C-11 1 -11 1 -9.2578125 0.33203125 C-8.55398437 0.16058594 -7.85015625 -0.01085937 -7.125 -0.1875 C-6.42632812 -0.36667969 -5.72765625 -0.54585937 -5.0078125 -0.73046875 C-3 -1 -3 -1 0 0 Z " fill="#072215" transform="translate(108,140)"/>
<path d="M0 0 C2.31 0 4.62 0 7 0 C7 0.66 7 1.32 7 2 C7.99 2.33 8.98 2.66 10 3 C8.375 3.6875 8.375 3.6875 6 4 C2.75 2.5625 2.75 2.5625 0 1 C0 0.67 0 0.34 0 0 Z " fill="#7DB96A" transform="translate(114,281)"/>
<path d="M0 0 C0 0.66 0 1.32 0 2 C-3.37097383 3.49821059 -5.20442119 4 -9 4 C-8.67 3.01 -8.34 2.02 -8 1 C-2.25 0 -2.25 0 0 0 Z " fill="#346F78" transform="translate(322,259)"/>
<path d="M0 0 C0.8125 1.6875 0.8125 1.6875 1 4 C-1.4375 6.75 -1.4375 6.75 -4 9 C-4.66 8.67 -5.32 8.34 -6 8 C-5.67 7.34 -5.34 6.68 -5 6 C-4.34 6 -3.68 6 -3 6 C-2.690625 5.195625 -2.38125 4.39125 -2.0625 3.5625 C-1 1 -1 1 0 0 Z " fill="#338364" transform="translate(254,258)"/>
<path d="M0 0 C0.99 0.66 1.98 1.32 3 2 C2 5 2 5 0 6 C-0.66 6.99 -1.32 7.98 -2 9 C-2.125 5.625 -2.125 5.625 -2 2 C-1.34 1.34 -0.68 0.68 0 0 Z " fill="#448458" transform="translate(202,227)"/>
<path d="M0 0 C0 3.38023517 -0.87455622 5.83468937 -2 9 C-2.99 8.01 -3.98 7.02 -5 6 C-3.35 4.02 -1.7 2.04 0 0 Z " fill="#0D263A" transform="translate(396,175)"/>
<path d="M0 0 C-0.66 0 -1.32 0 -2 0 C-2 0.66 -2 1.32 -2 2 C-4.64 2.33 -7.28 2.66 -10 3 C-10 2.34 -10 1.68 -10 1 C-3.375 -1.125 -3.375 -1.125 0 0 Z " fill="#05201F" transform="translate(122,135)"/>
<path d="M0 0 C0.66 0.66 1.32 1.32 2 2 C-1.96 3.98 -1.96 3.98 -6 6 C-5.67 4.68 -5.34 3.36 -5 2 C-2.4375 0.75 -2.4375 0.75 0 0 Z " fill="#65B57F" transform="translate(198,320)"/>
<path d="M0 0 C0.95904856 3.83619425 0.91892116 5.32431536 0 9 C-0.66 9 -1.32 9 -2 9 C-2 9.66 -2 10.32 -2 11 C-2.66 10.67 -3.32 10.34 -4 10 C-2.68 6.7 -1.36 3.4 0 0 Z " fill="#0B3344" transform="translate(410,152)"/>
<path d="M0 0 C0.66 0.33 1.32 0.66 2 1 C2.33333333 2.33333333 2.66666667 3.66666667 3 5 C3.66 5.33 4.32 5.66 5 6 C0.25 5.125 0.25 5.125 -2 4 C-1.34 2.68 -0.68 1.36 0 0 Z " fill="#7DB95D" transform="translate(86,320)"/>
<path d="M0 0 C3.99500618 1.3697164 6.80009492 3.25722422 10 6 C4.25 5.125 4.25 5.125 2 4 C2 3.34 2 2.68 2 2 C1.34 2 0.68 2 0 2 C0 1.34 0 0.68 0 0 Z " fill="#072022" transform="translate(118,259)"/>
<path d="M0 0 C0.66 0.33 1.32 0.66 2 1 C-0.625 5.875 -0.625 5.875 -4 7 C-3.39816251 4.97954558 -2.72693904 2.97888961 -2 1 C-1.34 0.67 -0.68 0.34 0 0 Z " fill="#3D7B49" transform="translate(183,255)"/>
<path d="M0 0 C1 3 1 3 -0.25 6.125 C-2 9 -2 9 -5 10 C-3.66511872 6.40608886 -2.03977277 3.24509304 0 0 Z " fill="#13341F" transform="translate(103,210)"/>
<path d="M0 0 C0 0.99 0 1.98 0 3 C-1.98 3.33 -3.96 3.66 -6 4 C-6.66 3.01 -7.32 2.02 -8 1 C-5.23735711 0.40267181 -2.83967231 0 0 0 Z " fill="#78B967" transform="translate(121,192)"/>
<path d="M0 0 C0.33 0.66 0.66 1.32 1 2 C1.66 2 2.32 2 3 2 C3.66 3.65 4.32 5.3 5 7 C3.68 6.67 2.36 6.34 1 6 C0.67 6.66 0.34 7.32 0 8 C0 5.36 0 2.72 0 0 Z " fill="#56AE85" transform="translate(224,178)"/>
<path d="M0 0 C0.99 0.33 1.98 0.66 3 1 C-0.465 3.97 -0.465 3.97 -4 7 C-4.66 6.67 -5.32 6.34 -6 6 C-4 4 -2 2 0 0 Z " fill="#5CA89C" transform="translate(285,122)"/>
<path d="M0 0 C0.99 0 1.98 0 3 0 C3.33 1.32 3.66 2.64 4 4 C3.01 4.495 3.01 4.495 2 5 C2 4.34 2 3.68 2 3 C1.34 3 0.68 3 0 3 C0 3.66 0 4.32 0 5 C-0.66 5 -1.32 5 -2 5 C-1.34 3.35 -0.68 1.7 0 0 Z " fill="#5DA47D" transform="translate(212,307)"/>
<path d="M0 0 C1.32 0 2.64 0 4 0 C2.84826645 2.46800047 1.95216435 4.04783565 0 6 C-0.38218767 4.34385343 -0.71395102 2.67542976 -1 1 C-0.67 0.67 -0.34 0.34 0 0 Z " fill="#53A199" transform="translate(292,200)"/>
<path d="M0 0 C0.99 0.66 1.98 1.32 3 2 C2.67 3.32 2.34 4.64 2 6 C0.68 5.34 -0.64 4.68 -2 4 C-2 3.34 -2 2.68 -2 2 C-1.34 2 -0.68 2 0 2 C0 1.34 0 0.68 0 0 Z " fill="#55AB83" transform="translate(219,171)"/>
<path d="M0 0 C0.66 0.66 1.32 1.32 2 2 C0.35 2.33 -1.3 2.66 -3 3 C-3 2.34 -3 1.68 -3 1 C-4.65 1 -6.3 1 -8 1 C-4.9553071 -0.84856355 -3.35670253 -1.34268101 0 0 Z " fill="#152A2C" transform="translate(112,137)"/>
<path d="M0 0 C0.33 0.99 0.66 1.98 1 3 C-0.375 4.5 -0.375 4.5 -2 6 C-2.66 6 -3.32 6 -4 6 C-3.67 4.35 -3.34 2.7 -3 1 C-2.01 0.67 -1.02 0.34 0 0 Z " fill="#6AA88C" transform="translate(219,303)"/>
<path d="M0 0 C0.33 1.32 0.66 2.64 1 4 C-0.98 4.99 -0.98 4.99 -3 6 C-3 6.66 -3 7.32 -3 8 C-3.66 7.67 -4.32 7.34 -5 7 C-3.35 4.69 -1.7 2.38 0 0 Z " fill="#0E322C" transform="translate(228,294)"/>
<path d="M0 0 C2 1.125 2 1.125 4 3 C4.25 6.1875 4.25 6.1875 4 9 C3.67 8.01 3.34 7.02 3 6 C2.01 6 1.02 6 0 6 C0 4.02 0 2.04 0 0 Z " fill="#7FB566" transform="translate(92,250)"/>
<path d="M0 0 C0.6875 1.75 0.6875 1.75 1 4 C-0.4375 6.25 -0.4375 6.25 -2 8 C-2.99 7.67 -3.98 7.34 -5 7 C-4.34 6.01 -3.68 5.02 -3 4 C-2.34 4 -1.68 4 -1 4 C-0.67 2.68 -0.34 1.36 0 0 Z " fill="#328672" transform="translate(278,224)"/>
<path d="M0 0 C0.75 1.75 0.75 1.75 1 4 C-0.9375 6.25 -0.9375 6.25 -3 8 C-2.25 2.25 -2.25 2.25 0 0 Z " fill="#082728" transform="translate(227,193)"/>
<path d="M0 0 C0.99 0.33 1.98 0.66 3 1 C1.25 5.875 1.25 5.875 -1 7 C-1.04254356 5.00045254 -1.04080783 2.99958364 -1 1 C-0.67 0.67 -0.34 0.34 0 0 Z " fill="#46B3A0" transform="translate(297,190)"/>
<path d="M0 0 C0 4.38968456 -2.12805101 5.76905739 -5 9 C-5 4.61031544 -2.87194899 3.23094261 0 0 Z " fill="#052011" transform="translate(61,169)"/>
<path d="M0 0 C2 1 2 1 3 3 C-1.625 5.125 -1.625 5.125 -5 4 C-3.35 2.68 -1.7 1.36 0 0 Z " fill="#4A9891" transform="translate(291,117)"/>
</svg>
