<?xml version="1.0" encoding="UTF-8"?>
<svg version="1.1" xmlns="http://www.w3.org/2000/svg" width="174" height="163">
<path d="M0 0 C57.42 0 114.84 0 174 0 C174 53.79 174 107.58 174 163 C116.58 163 59.16 163 0 163 C0 109.21 0 55.42 0 0 Z " fill="#FEFEFE" transform="translate(0,0)"/>
<path d="M0 0 C1.32 0 2.64 0 4 0 C4.33 2.64 4.66 5.28 5 8 C7.97 8.33 10.94 8.66 14 9 C14 9.99 14 10.98 14 12 C14.66 12 15.32 12 16 12 C16 10.02 16 8.04 16 6 C16.66 6 17.32 6 18 6 C18.103125 6.639375 18.20625 7.27875 18.3125 7.9375 C18.539375 8.618125 18.76625 9.29875 19 10 C19.99 10.33 20.98 10.66 22 11 C22 9.68 22 8.36 22 7 C24.64 7 27.28 7 30 7 C30.33 8.98 30.66 10.96 31 13 C32.32 13 33.64 13 35 13 C35.33 12.34 35.66 11.68 36 11 C37.98 11 39.96 11 42 11 C42.495 11.99 42.495 11.99 43 13 C43.99 12.34 44.98 11.68 46 11 C46.99 11 47.98 11 49 11 C49.1875 13.375 49.1875 13.375 49 16 C46 18 46 18 43 18 C43 24.93 43 31.86 43 39 C40.525 39.495 40.525 39.495 38 40 C35.73499199 34.65734751 35.92513901 30.26625682 36.375 24.625 C36.46007812 23.37783203 36.46007812 23.37783203 36.546875 22.10546875 C36.6872831 20.06955124 36.84217665 18.03464157 37 16 C36.34 16 35.68 16 35 16 C35.33 24.58 35.66 33.16 36 42 C30 44 30 44 26 44 C26 43.34 26 42.68 26 42 C26.99 41.34 27.98 40.68 29 40 C26.93827387 39.66191314 24.8755797 39.32972639 22.8125 39 C21.08966797 38.7215625 21.08966797 38.7215625 19.33203125 38.4375 C15.73386356 37.89151342 15.73386356 37.89151342 11 38 C10.67 29.75 10.34 21.5 10 13 C8.02 13.99 6.04 14.98 4 16 C3.67 23.26 3.34 30.52 3 38 C2.01 38 1.02 38 0 38 C0 25.46 0 12.92 0 0 Z " fill="#F6FCFC" transform="translate(78,62)"/>
<path d="M0 0 C0 0.66 0 1.32 0 2 C0.66 2 1.32 2 2 2 C2 5.63 2 9.26 2 13 C0.68 13 -0.64 13 -2 13 C-2.33 12.34 -2.66 11.68 -3 11 C-3 12.98 -3 14.96 -3 17 C-0.69 17.33 1.62 17.66 4 18 C4.59333823 22.86537351 3.61978278 25.84919374 0.69921875 29.6484375 C-2.03487157 31.82313922 -4.54060715 31.57401999 -7.9140625 31.34375 C-10 31 -10 31 -13 30 C-14.2710735 26.83321116 -14.10265074 23.62266213 -14.0625 20.25 C-14.05347656 19.26515625 -14.04445313 18.2803125 -14.03515625 17.265625 C-14.02355469 16.51796875 -14.01195313 15.7703125 -14 15 C-14.99 15.33 -15.98 15.66 -17 16 C-18.89470816 16.0685495 -20.7916834 16.08480372 -22.6875 16.0625 C-23.68136719 16.05347656 -24.67523438 16.04445313 -25.69921875 16.03515625 C-26.83810547 16.01775391 -26.83810547 16.01775391 -28 16 C-27.67 19.3 -27.34 22.6 -27 26 C-25.02 26.33 -23.04 26.66 -21 27 C-21 24.69 -21 22.38 -21 20 C-19.68 20 -18.36 20 -17 20 C-17.58704453 26.22267206 -17.58704453 26.22267206 -19.0625 29 C-21.8163312 30.42133223 -24.02537806 30.13448912 -27.0625 29.91015625 C-30.25758073 28.40924131 -30.80647356 26.23537475 -32 23 C-32.25817268 20.19618919 -32.37716901 17.66352761 -32.3125 14.875 C-32.31572266 14.17246094 -32.31894531 13.46992187 -32.32226562 12.74609375 C-32.28406418 9.07180967 -32.2403679 6.01213343 -30 3 C-26.37671381 1.79223794 -23.80388473 1.59959108 -20 2 C-17.5625 4.5 -17.5625 4.5 -16 7 C-15.46375 6.030625 -14.9275 5.06125 -14.375 4.0625 C-12 1 -12 1 -9.125 0.125 C-6.07639568 0.00305583 -3.05042491 -0.07262916 0 0 Z " fill="#F1FCFC" transform="translate(72,71)"/>
<path d="M0 0 C0.99 0 1.98 0 3 0 C3 2.64 3 5.28 3 8 C4.258125 7.855625 5.51625 7.71125 6.8125 7.5625 C7.87404297 7.44068359 7.87404297 7.44068359 8.95703125 7.31640625 C11.19396393 7.02829265 11.19396393 7.02829265 14 6 C16.33299825 5.96045766 18.66708189 5.95598268 21 6 C24 11.625 24 11.625 24 15 C23.01 15 22.02 15 21 15 C20.7525 14.360625 20.505 13.72125 20.25 13.0625 C19.18437567 10.81258459 19.18437567 10.81258459 16.875 10.25 C16.25625 10.1675 15.6375 10.085 15 10 C14.62345698 12.81609387 14.62345698 12.81609387 15 16 C16.94205872 18.36776259 16.94205872 18.36776259 19.5 20.375 C23.79685284 24.38088486 23.79685284 24.38088486 24.73828125 27.25 C24.84905291 30.42156747 24.35564043 32.53055463 22.4375 35.0625 C18.96587847 36.39773905 16.58354565 35.83189453 13 35 C11.65273888 34.36194852 10.31557361 33.70106226 9 33 C9.09539062 32.2265625 9.19078125 31.453125 9.2890625 30.65625 C9.97714189 24.19150407 10.02381835 19.19050318 8 13 C7.34 13 6.68 13 6 13 C6 19.27 6 25.54 6 32 C6.66 32.33 7.32 32.66 8 33 C8 33.99 8 34.98 8 36 C5.125 36.1875 5.125 36.1875 2 36 C-0.23413013 32.64880481 -0.23847762 31.5822245 -0.1953125 27.67578125 C-0.18886719 26.64775391 -0.18242187 25.61972656 -0.17578125 24.56054688 C-0.15902344 23.48869141 -0.14226562 22.41683594 -0.125 21.3125 C-0.11597656 20.22904297 -0.10695312 19.14558594 -0.09765625 18.02929688 C-0.0740734 15.3526429 -0.04116126 12.67643203 0 10 C-0.99 10 -1.98 10 -3 10 C-3 9.34 -3 8.68 -3 8 C-2.01 8 -1.02 8 0 8 C0 5.36 0 2.72 0 0 Z " fill="#D3FAFB" transform="translate(132,65)"/>
<path d="M0 0 C13 0 13 0 18 4 C18.55859375 6.4375 18.55859375 6.4375 18.4375 9 C18.41558594 9.845625 18.39367187 10.69125 18.37109375 11.5625 C17.98283577 14.11274188 17.36700846 15.82057014 16 18 C15.34 18.33 14.68 18.66 14 19 C14.87285897 23.17858016 15.75062931 27.26574187 17.125 31.3125 C18 34 18 34 18 38 C17.01 38 16.02 38 15 38 C13.35 32.39 11.7 26.78 10 21 C8.02 20.67 6.04 20.34 4 20 C4 25.94 4 31.88 4 38 C2.68 38 1.36 38 0 38 C0 25.46 0 12.92 0 0 Z " fill="#3FADB2" transform="translate(17,62)"/>
<path d="M0 0 C2.31 0 4.62 0 7 0 C7.33 0.66 7.66 1.32 8 2 C8.99 1.34 9.98 0.68 11 0 C11.99 0 12.98 0 14 0 C14.1875 2.375 14.1875 2.375 14 5 C11 7 11 7 8 7 C8 13.93 8 20.86 8 28 C6.35 28.33 4.7 28.66 3 29 C0.73499199 23.65734751 0.92513901 19.26625682 1.375 13.625 C1.46007812 12.37783203 1.46007812 12.37783203 1.546875 11.10546875 C1.6872831 9.06955124 1.84217665 7.03464157 2 5 C1.34 5 0.68 5 0 5 C0.33 13.58 0.66 22.16 1 31 C-5 33 -5 33 -9 33 C-9 32.34 -9 31.68 -9 31 C-8.01 30.34 -7.02 29.68 -6 29 C-6.99 28.34 -7.98 27.68 -9 27 C-7.68 26.01 -6.36 25.02 -5 24 C-5 24.99 -5 25.98 -5 27 C-4.01 27 -3.02 27 -2 27 C-2.33 18.75 -2.66 10.5 -3 2 C-2.01 2 -1.02 2 0 2 C0 1.34 0 0.68 0 0 Z " fill="#ECFDFE" transform="translate(113,73)"/>
<path d="M0 0 C3.00559652 5.00932754 3.29341888 8.32723489 3 14 C-0.63 14 -4.26 14 -8 14 C-7.67 17.3 -7.34 20.6 -7 24 C-5.02 24.33 -3.04 24.66 -1 25 C-1 22.69 -1 20.38 -1 18 C0.32 18 1.64 18 3 18 C2.41295547 24.22267206 2.41295547 24.22267206 0.9375 27 C-1.8163312 28.42133223 -4.02537806 28.13448912 -7.0625 27.91015625 C-10.25758073 26.40924131 -10.80647356 24.23537475 -12 21 C-12.25817268 18.19618919 -12.37716901 15.66352761 -12.3125 12.875 C-12.31572266 12.17246094 -12.31894531 11.46992187 -12.32226562 10.74609375 C-12.28406418 7.07180967 -12.2403679 4.01213343 -10 1 C-6.52674819 -0.1577506 -3.63932552 -0.06866652 0 0 Z " fill="#75CBCE" transform="translate(52,73)"/>
<path d="M0 0 C1.9375 0.375 1.9375 0.375 4 1 C5.32229189 3.64458379 5.09677194 5.67761301 5.0625 8.625 C5.05347656 9.62789062 5.04445313 10.63078125 5.03515625 11.6640625 C5.02355469 12.43492188 5.01195312 13.20578125 5 14 C7.51083114 12.74458443 7.87125446 11.49936512 9 9 C9.99 9.33 10.98 9.66 12 10 C12 9.34 12 8.68 12 8 C14.97 8.495 14.97 8.495 18 9 C18 9.33 18 9.66 18 10 C15.36 10.33 12.72 10.66 10 11 C8.73754928 14.89844784 8.81621812 18.82224391 8.8125 22.875 C8.80025391 23.56980469 8.78800781 24.26460937 8.77539062 24.98046875 C8.76297126 29.37692393 9.38091593 32.91709235 11 37 C10.34 37 9.68 37 9 37 C9.33 37.99 9.66 38.98 10 40 C9.67 40.66 9.34 41.32 9 42 C7.35 42 5.7 42 4 42 C4 41.01 4 40.02 4 39 C2.35 39 0.7 39 -1 39 C-1.33 36.03 -1.66 33.06 -2 30 C0 33 0 33 0 37 C0.99 37 1.98 37 3 37 C2.62746094 35.80761719 2.25492188 34.61523438 1.87109375 33.38671875 C1.39277271 31.82045182 0.91493311 30.25403782 0.4375 28.6875 C0.19064453 27.90181641 -0.05621094 27.11613281 -0.31054688 26.30664062 C-0.53935547 25.54931641 -0.76816406 24.79199219 -1.00390625 24.01171875 C-1.21861572 23.31522217 -1.4333252 22.61872559 -1.65454102 21.90112305 C-2 20 -2 20 -1 17 C-0.34 16.67 0.32 16.34 1 16 C1.97551509 13.07345473 2.16478088 11.05345004 2.1875 8 C2.20167969 7.13375 2.21585938 6.2675 2.23046875 5.375 C2.16255938 2.73278463 2.16255938 2.73278463 0 0 Z " fill="#E6FBFB" transform="translate(32,63)"/>
<path d="M0 0 C1.8871875 0.061875 1.8871875 0.061875 3.8125 0.125 C5.74959638 3.38253924 6.04965445 5.78109928 6.0078125 9.546875 C5.99814453 11.08408203 5.99814453 11.08408203 5.98828125 12.65234375 C5.97152344 13.71582031 5.95476562 14.77929688 5.9375 15.875 C5.92847656 16.95394531 5.91945313 18.03289062 5.91015625 19.14453125 C5.88661305 21.80491278 5.85372799 24.46484336 5.8125 27.125 C4.9153125 26.815625 4.9153125 26.815625 4 26.5 C1.52799154 25.81828085 1.52799154 25.81828085 -1.1875 28.125 C-4.3125 27.875 -4.3125 27.875 -7.1875 27.125 C-8.77689347 23.94621306 -8.60326711 21.6293228 -8.1875 18.125 C-5.18865691 15.05800138 -2.14256893 12.79829839 1.8125 11.125 C2.02220559 6.98406302 2.02220559 6.98406302 0.8125 3.125 C-0.8375 3.455 -2.4875 3.785 -4.1875 4.125 C-4.5175 5.445 -4.8475 6.765 -5.1875 8.125 C-6.1775 8.125 -7.1675 8.125 -8.1875 8.125 C-7.875 5.25 -7.875 5.25 -7.1875 2.125 C-4.09861478 0.06574319 -3.47814073 -0.1140374 0 0 Z " fill="#41ABAD" transform="translate(105.1875,72.875)"/>
<path d="M0 0 C0.99 0 1.98 0 3 0 C3 4.29 3 8.58 3 13 C4.32 12.34 5.64 11.68 7 11 C10.25 10.875 10.25 10.875 13 11 C14.3308911 13.66178221 14.11268993 15.68739396 14.09765625 18.6640625 C14.09443359 19.78554687 14.09121094 20.90703125 14.08789062 22.0625 C14.07951172 23.238125 14.07113281 24.41375 14.0625 25.625 C14.05798828 26.80835937 14.05347656 27.99171875 14.04882812 29.2109375 C14.03701467 32.14067507 14.02054258 35.07031272 14 38 C13.01 38 12.02 38 11 38 C10.67 29.75 10.34 21.5 10 13 C8.02 13.99 6.04 14.98 4 16 C3.67 23.26 3.34 30.52 3 38 C2.01 38 1.02 38 0 38 C0 25.46 0 12.92 0 0 Z " fill="#2BA2A8" transform="translate(78,62)"/>
<path d="M0 0 C0.33 4.95 0.66 9.9 1 15 C-1.475 16.485 -1.475 16.485 -4 18 C-4 17.34 -4 16.68 -4 16 C-7.3 16 -10.6 16 -14 16 C-14 15.34 -14 14.68 -14 14 C-11.03 14 -8.06 14 -5 14 C-4.34 11.03 -3.68 8.06 -3 5 C-4.32 5 -5.64 5 -7 5 C-7 7.31 -7 9.62 -7 12 C-8.99954746 12.04254356 -11.00041636 12.04080783 -13 12 C-14 11 -14 11 -14.09765625 8.71484375 C-14.08605469 7.79832031 -14.07445312 6.88179688 -14.0625 5.9375 C-14.05347656 5.01839844 -14.04445312 4.09929687 -14.03515625 3.15234375 C-14.02355469 2.44207031 -14.01195312 1.73179688 -14 1 C-12.22932584 0.83165067 -10.45845388 0.66538091 -8.6875 0.5 C-7.70136719 0.4071875 -6.71523438 0.314375 -5.69921875 0.21875 C-3 0 -3 0 0 0 Z " fill="#F9FAFB" transform="translate(58,86)"/>
<path d="M0 0 C1.9375 1.625 1.9375 1.625 3 4 C3.1875 7.25 3.1875 7.25 3 10 C2.01 10 1.02 10 0 10 C-0.33 7.36 -0.66 4.72 -1 2 C-3.47266765 2.34444881 -3.47266765 2.34444881 -6 3 C-7.20029908 5.40059817 -7.11459743 6.89360649 -7.09765625 9.5703125 C-7.09443359 10.46621094 -7.09121094 11.36210938 -7.08789062 12.28515625 C-7.07951172 13.22230469 -7.07113281 14.15945312 -7.0625 15.125 C-7.05798828 16.06988281 -7.05347656 17.01476562 -7.04882812 17.98828125 C-7.03702357 20.32558387 -7.02055759 22.66276061 -7 25 C-5.02 24.67 -3.04 24.34 -1 24 C-0.67 21.69 -0.34 19.38 0 17 C0.99 17 1.98 17 3 17 C2.91291331 18.45945288 2.80473093 19.91765868 2.6875 21.375 C2.62949219 22.18710938 2.57148437 22.99921875 2.51171875 23.8359375 C2 26 2 26 -1 28 C-7.09423249 27.78234884 -7.09423249 27.78234884 -9.69140625 25.5390625 C-11.71254664 21.61744681 -11.47356148 17.84704725 -11.4375 13.5 C-11.45748047 12.64535156 -11.47746094 11.79070312 -11.49804688 10.91015625 C-11.493203 4.70030556 -11.493203 4.70030556 -9.1953125 1.4375 C-5.97911903 -0.66847722 -3.75004593 -0.54546123 0 0 Z " fill="#3BABAE" transform="translate(70,73)"/>
<path d="M0 0 C0.99 0.33 1.98 0.66 3 1 C4.79283851 8.37822 5.15814639 13.68628168 3 21 C5.91499943 21.79560764 8.74561419 22.25322499 11.75 22.5625 C12.54921875 22.64628906 13.3484375 22.73007813 14.171875 22.81640625 C14.77515625 22.87699219 15.3784375 22.93757813 16 23 C15.67 23.66 15.34 24.32 15 25 C12.69 25 10.38 25 8 25 C7.67 26.32 7.34 27.64 7 29 C2.05 27.02 2.05 27.02 -3 25 C-3 24.67 -3 24.34 -3 24 C-1.35 24 0.3 24 2 24 C2 23.01 2 22.02 2 21 C1.01 20.67 0.02 20.34 -1 20 C-1.02888514 16.85418577 -1.04675923 13.70840531 -1.0625 10.5625 C-1.07087891 9.66466797 -1.07925781 8.76683594 -1.08789062 7.84179688 C-1.09111328 6.98779297 -1.09433594 6.13378906 -1.09765625 5.25390625 C-1.10551147 4.06776733 -1.10551147 4.06776733 -1.11352539 2.85766602 C-1 1 -1 1 0 0 Z " fill="#FCFBFA" transform="translate(138,77)"/>
<path d="M0 0 C1.4606285 2.64738916 2 3.89448334 2 7 C1.01 7 0.02 7 -1 7 C-1.2475 6.360625 -1.495 5.72125 -1.75 5.0625 C-2.81562433 2.81258459 -2.81562433 2.81258459 -5.125 2.25 C-6.053125 2.12625 -6.053125 2.12625 -7 2 C-7.37654302 4.81609387 -7.37654302 4.81609387 -7 8 C-5.05794128 10.36776259 -5.05794128 10.36776259 -2.5 12.375 C1.79685284 16.38088486 1.79685284 16.38088486 2.73828125 19.25 C2.84905291 22.42156747 2.35564043 24.53055463 0.4375 27.0625 C-3.0507008 28.40411569 -5.42525344 27.92678615 -9 27 C-11 24 -11 24 -11 20 C-10.01 20.33 -9.02 20.66 -8 21 C-7.67 21.99 -7.34 22.98 -7 24 C-5.02 24.33 -3.04 24.66 -1 25 C-1 21.0732425 -1.12059594 18.97037689 -3.8125 16 C-4.534375 15.34 -5.25625 14.68 -6 14 C-9.00175975 11.22458479 -9.93089956 10.22184879 -11.1875 6.1875 C-11 3 -11 3 -10.0625 1.0625 C-6.74491303 -0.64655995 -3.69558797 -0.18175023 0 0 Z " fill="#41ACAA" transform="translate(154,73)"/>
<path d="M0 0 C6.8359375 -0.1953125 6.8359375 -0.1953125 9 0 C11.41486943 2.41486943 11.2961925 3.12707789 11.3125 6.4375 C11.32925781 7.21996094 11.34601562 8.00242187 11.36328125 8.80859375 C11 11 11 11 9.7421875 12.7734375 C6.66691538 14.93853939 3.65921113 14.1799612 0 14 C0 9.38 0 4.76 0 0 Z " fill="#F8FBFA" transform="translate(21,65)"/>
<path d="M0 0 C0 0.66 0 1.32 0 2 C0.66 2 1.32 2 2 2 C2 5.63 2 9.26 2 13 C0.68 12.67 -0.64 12.34 -2 12 C-1.01 12 -0.02 12 1 12 C0.69181644 10.68647977 0.37832335 9.37420428 0.0625 8.0625 C-0.11152344 7.33160156 -0.28554687 6.60070312 -0.46484375 5.84765625 C-0.83887569 4.00030102 -0.83887569 4.00030102 -2 3 C-6.61794839 2.49082151 -6.61794839 2.49082151 -10.69946289 4.24633789 C-13.13865991 7.53538466 -12.46994515 11.48804042 -12.4375 15.4375 C-12.45748047 16.29666016 -12.47746094 17.15582031 -12.49804688 18.04101562 C-12.4949711 22.00568349 -12.49008354 24.28569523 -10.20703125 27.61328125 C-7.90307593 29.36214664 -7.90307593 29.36214664 -4.25 28.75 C-3.1775 28.5025 -2.105 28.255 -1 28 C-0.34 25.03 0.32 22.06 1 19 C1.66 19.33 2.32 19.66 3 20 C3.39650906 23.37032699 2.93123746 25.15845281 1.5625 28.3125 C-1 31 -1 31 -3.1640625 31.4140625 C-6.74561761 31.44906141 -9.58767917 31.13744028 -13 30 C-14.2710735 26.83321116 -14.10265074 23.62266213 -14.0625 20.25 C-14.05347656 19.26515625 -14.04445312 18.2803125 -14.03515625 17.265625 C-14.02355469 16.51796875 -14.01195312 15.7703125 -14 15 C-14.99 15 -15.98 15 -17 15 C-17.33 11.7 -17.66 8.4 -18 5 C-17.34 5.66 -16.68 6.32 -16 7 C-15.46375 6.030625 -14.9275 5.06125 -14.375 4.0625 C-12 1 -12 1 -9.125 0.125 C-6.07639568 0.00305583 -3.05042491 -0.07262916 0 0 Z " fill="#D1FBFB" transform="translate(72,71)"/>
<path d="M0 0 C0.99 0 1.98 0 3 0 C3 2.64 3 5.28 3 8 C4.65 8 6.3 8 8 8 C8 8.66 8 9.32 8 10 C6.35 10 4.7 10 3 10 C3.33 17.26 3.66 24.52 4 32 C5.32 32.33 6.64 32.66 8 33 C8 33.99 8 34.98 8 36 C5.125 36.1875 5.125 36.1875 2 36 C-0.23413013 32.64880481 -0.23847762 31.5822245 -0.1953125 27.67578125 C-0.18886719 26.64775391 -0.18242187 25.61972656 -0.17578125 24.56054688 C-0.15902344 23.48869141 -0.14226562 22.41683594 -0.125 21.3125 C-0.11597656 20.22904297 -0.10695312 19.14558594 -0.09765625 18.02929688 C-0.0740734 15.3526429 -0.04116126 12.67643203 0 10 C-0.99 10 -1.98 10 -3 10 C-3 9.34 -3 8.68 -3 8 C-2.01 8 -1.02 8 0 8 C0 5.36 0 2.72 0 0 Z " fill="#2FA6AC" transform="translate(132,65)"/>
<path d="M0 0 C0.33 0 0.66 0 1 0 C1 5.28 1 10.56 1 16 C1.66 16 2.32 16 3 16 C3 11.71 3 7.42 3 3 C3.33 3 3.66 3 4 3 C4.33 8.28 4.66 13.56 5 19 C6.65 19 8.3 19 10 19 C10 19.33 10 19.66 10 20 C8.02 20 6.04 20 4 20 C4 25.94 4 31.88 4 38 C2.68 38 1.36 38 0 38 C0 25.46 0 12.92 0 0 Z " fill="#5AB7B9" transform="translate(17,62)"/>
<path d="M0 0 C1.8871875 0.061875 1.8871875 0.061875 3.8125 0.125 C5.64319903 3.25429178 6.05181181 5.50143146 6.0078125 9.109375 C5.99814453 10.51123047 5.99814453 10.51123047 5.98828125 11.94140625 C5.97152344 12.90949219 5.95476562 13.87757812 5.9375 14.875 C5.92847656 15.85855469 5.91945313 16.84210938 5.91015625 17.85546875 C5.88662785 20.27889407 5.85375368 22.70182222 5.8125 25.125 C5.1525 25.125 4.4925 25.125 3.8125 25.125 C3.76351562 24.34253906 3.71453125 23.56007813 3.6640625 22.75390625 C3.55191406 21.23603516 3.55191406 21.23603516 3.4375 19.6875 C3.36789063 18.67816406 3.29828125 17.66882813 3.2265625 16.62890625 C3.08992188 15.80261719 2.95328125 14.97632812 2.8125 14.125 C2.1525 13.795 1.4925 13.465 0.8125 13.125 C1.4725 13.125 2.1325 13.125 2.8125 13.125 C2.1525 9.825 1.4925 6.525 0.8125 3.125 C-0.8375 3.455 -2.4875 3.785 -4.1875 4.125 C-4.5175 5.445 -4.8475 6.765 -5.1875 8.125 C-6.1775 8.125 -7.1675 8.125 -8.1875 8.125 C-7.875 5.25 -7.875 5.25 -7.1875 2.125 C-4.09861478 0.06574319 -3.47814073 -0.1140374 0 0 Z " fill="#2CA5A7" transform="translate(105.1875,72.875)"/>
<path d="M0 0 C0.99 0 1.98 0 3 0 C3.33 0.66 3.66 1.32 4 2 C4.99 1.34 5.98 0.68 7 0 C7.99 0 8.98 0 10 0 C10 0.99 10 1.98 10 3 C7.69 3.66 5.38 4.32 3 5 C3 12.26 3 19.52 3 27 C2.01 27 1.02 27 0 27 C0 18.09 0 9.18 0 0 Z " fill="#32ABAF" transform="translate(117,73)"/>
<path d="M0 0 C1.98 0 3.96 0 6 0 C6.50403768 1.29009643 7.00309926 2.58213789 7.5 3.875 C7.7784375 4.59429687 8.056875 5.31359375 8.34375 6.0546875 C9 8 9 8 9 10 C8.401875 10.144375 7.80375 10.28875 7.1875 10.4375 C5.43849596 10.8872439 3.71322977 11.42892341 2 12 C1.67 13.98 1.34 15.96 1 18 C0.67 18 0.34 18 0 18 C0 12.06 0 6.12 0 0 Z " fill="#E5FBFB" transform="translate(21,82)"/>
<path d="M0 0 C1.90318884 2.85478326 2.4619099 4.41941308 3.125 7.6875 C3.29257812 8.49574219 3.46015625 9.30398437 3.6328125 10.13671875 C3.75398438 10.75160156 3.87515625 11.36648437 4 12 C6.97 12.495 6.97 12.495 10 13 C10 10.69 10 8.38 10 6 C11.32 6 12.64 6 14 6 C13.41295547 12.22267206 13.41295547 12.22267206 11.9375 15 C9.14638931 16.44057326 6.89760082 15.99300122 3.83984375 15.6171875 C2 15 2 15 0 12 C-0.1953125 9.08203125 -0.1953125 9.08203125 -0.125 5.8125 C-0.10695312 4.72582031 -0.08890625 3.63914062 -0.0703125 2.51953125 C-0.04710937 1.68808594 -0.02390625 0.85664062 0 0 Z " fill="#57B3AD" transform="translate(41,85)"/>
<path d="M0 0 C0 2.64 0 5.28 0 8 C-0.99 8 -1.98 8 -3 8 C-3 8.66 -3 9.32 -3 10 C-2.01 10 -1.02 10 0 10 C0.02505615 10.68102783 0.0501123 11.36205566 0.07592773 12.0637207 C0.19190952 15.14683755 0.31462616 18.22965046 0.4375 21.3125 C0.47681641 22.38435547 0.51613281 23.45621094 0.55664062 24.56054688 C0.61948242 26.10258789 0.61948242 26.10258789 0.68359375 27.67578125 C0.72025146 28.62364502 0.75690918 29.57150879 0.79467773 30.5480957 C0.91430187 33.136171 0.91430187 33.136171 2 36 C1.01 36 0.02 36 -1 36 C-1 27.75 -1 19.5 -1 11 C-2.32 11 -3.64 11 -5 11 C-5 10.01 -5 9.02 -5 8 C-8.465 9.485 -8.465 9.485 -12 11 C-12 10.01 -12 9.02 -12 8 C-8.5980513 5.90649311 -5.94727588 5.82057837 -2 6 C-2.33 4.35 -2.66 2.7 -3 1 C-1 0 -1 0 0 0 Z " fill="#C6F7F9" transform="translate(132,65)"/>
<path d="M0 0 C0.33 0 0.66 0 1 0 C1 8.91 1 17.82 1 27 C1.99 27 2.98 27 4 27 C3.98428955 26.34402832 3.9685791 25.68805664 3.95239258 25.01220703 C3.89016348 22.04989184 3.85104832 19.0877139 3.8125 16.125 C3.78736328 15.09246094 3.76222656 14.05992188 3.73632812 12.99609375 C3.72666016 12.00996094 3.71699219 11.02382812 3.70703125 10.0078125 C3.68346558 8.64100342 3.68346558 8.64100342 3.65942383 7.24658203 C3.77181396 6.50520996 3.8842041 5.76383789 4 5 C7 3 7 3 11 3 C10.67 3.99 10.34 4.98 10 6 C8.35 6.33 6.7 6.66 5 7 C5 13.93 5 20.86 5 28 C3.35 28.33 1.7 28.66 0 29 C0 19.43 0 9.86 0 0 Z " fill="#B8EFF0" transform="translate(116,73)"/>
<path d="M0 0 C2.20914 3.31371 2.22481553 4.3446021 2.125 8.1875 C2.10695313 9.08855469 2.08890625 9.98960938 2.0703125 10.91796875 C2.03550781 11.94857422 2.03550781 11.94857422 2 13 C-0.97 13 -3.94 13 -7 13 C-7 12.67 -7 12.34 -7 12 C-4.69 12 -2.38 12 0 12 C-0.66 9.03 -1.32 6.06 -2 3 C-3.65 2.67 -5.3 2.34 -7 2 C-7.66 4.64 -8.32 7.28 -9 10 C-9.66 10 -10.32 10 -11 10 C-11.125 3.25 -11.125 3.25 -10 1 C-6.457201 -0.180933 -3.71640139 -0.27028374 0 0 Z " fill="#38A09D" transform="translate(52,73)"/>
<path d="M0 0 C0.08096803 1.45742463 0.13917774 2.91612807 0.1875 4.375 C0.22230469 5.18710938 0.25710937 5.99921875 0.29296875 6.8359375 C0.19628906 7.55007812 0.09960938 8.26421875 0 9 C-3 11 -3 11 -7 11 C-7.8125 7.75 -7.8125 7.75 -8 4 C-5.28876321 1.06282681 -4.03680571 0 0 0 Z " fill="#E1F9FB" transform="translate(108,87)"/>
<path d="M0 0 C2.31 0 4.62 0 7 0 C6.67 0.99 6.34 1.98 6 3 C6.99 3.33 7.98 3.66 9 4 C10.16796875 6.80078125 10.16796875 6.80078125 11.1875 10.3125 C11.53167969 11.46363281 11.87585937 12.61476563 12.23046875 13.80078125 C13 17 13 17 13 21 C12.01 21 11.02 21 10 21 C9.16338138 18.2092793 8.33057263 15.41751988 7.5 12.625 C7.26152344 11.8309375 7.02304687 11.036875 6.77734375 10.21875 C6.55175781 9.45820312 6.32617188 8.69765625 6.09375 7.9140625 C5.88427734 7.2123291 5.67480469 6.5105957 5.45898438 5.78759766 C5 4 5 4 5 2 C3.35 2 1.7 2 0 2 C0 1.34 0 0.68 0 0 Z " fill="#37A6A8" transform="translate(22,79)"/>
<path d="M0 0 C5.42693662 0.48239437 5.42693662 0.48239437 7.9375 2.75 C9.27773867 5.58815249 8.90110078 7.05094291 8 10 C6.02 10 4.04 10 2 10 C1.690625 9.05125 1.38125 8.1025 1.0625 7.125 C0.12605258 4.13919592 0.12605258 4.13919592 -1 2 C-0.67 1.34 -0.34 0.68 0 0 Z " fill="#E7FAFA" transform="translate(145,88)"/>
<path d="M0 0 C0.33 0 0.66 0 1 0 C1 7.59 1 15.18 1 23 C1.66 23 2.32 23 3 23 C2 26 2 26 -0.3125 27.1875 C-3 28 -3 28 -7 28 C-7 27.34 -7 26.68 -7 26 C-6.01 25.34 -5.02 24.68 -4 24 C-4.99 23.34 -5.98 22.68 -7 22 C-5.68 21.01 -4.36 20.02 -3 19 C-3 19.99 -3 20.98 -3 22 C-2.01 22 -1.02 22 0 22 C0 14.74 0 7.48 0 0 Z " fill="#D8FAFB" transform="translate(111,78)"/>
<path d="M0 0 C1.65 0.33 3.3 0.66 5 1 C5.33 2.32 5.66 3.64 6 5 C6.66 5 7.32 5 8 5 C7.67 7.64 7.34 10.28 7 13 C0.34240735 7.9416202 0.34240735 7.9416202 -1 4.25 C-1 2 -1 2 0 0 Z " fill="#DFF8FB" transform="translate(147,75)"/>
<path d="M0 0 C2.5 0.3125 2.5 0.3125 5 1 C6.55576012 4.11152024 6.73142946 5.54233344 6 9 C2.87959353 11.41544599 -0.48171897 13.22829419 -4 15 C-4 13.68 -4 12.36 -4 11 C-2.68 11 -1.36 11 0 11 C0 9.68 0 8.36 0 7 C1.32 7 2.64 7 4 7 C4 6.01 4 5.02 4 4 C2.35 4 0.7 4 -1 4 C-1.33 4.66 -1.66 5.32 -2 6 C-1.125 1.125 -1.125 1.125 0 0 Z " fill="#CDF6F5" transform="translate(102,75)"/>
<path d="M0 0 C0.66 0 1.32 0 2 0 C1.67 1.65 1.34 3.3 1 5 C3.91499943 5.79560764 6.74561419 6.25322499 9.75 6.5625 C10.54921875 6.64628906 11.3484375 6.73007813 12.171875 6.81640625 C13.07679688 6.90728516 13.07679688 6.90728516 14 7 C13.67 7.66 13.34 8.32 13 9 C10.69 9 8.38 9 6 9 C5.67 10.32 5.34 11.64 5 13 C0.05 11.02 0.05 11.02 -5 9 C-5 8.67 -5 8.34 -5 8 C-3.35 8 -1.7 8 0 8 C0 5.36 0 2.72 0 0 Z " fill="#E9FAF9" transform="translate(140,93)"/>
<path d="M0 0 C6.8359375 -0.1953125 6.8359375 -0.1953125 9 0 C11.41486943 2.41486943 11.2961925 3.12707789 11.3125 6.4375 C11.32925781 7.21996094 11.34601562 8.00242187 11.36328125 8.80859375 C11 11 11 11 9.7421875 12.7734375 C6.66691538 14.93853939 3.65921113 14.1799612 0 14 C0 9.38 0 4.76 0 0 Z M1 1 C1 4.63 1 8.26 1 12 C3.97 11.34 6.94 10.68 10 10 C10 7.69 10 5.38 10 3 C6.62902617 1.50178941 4.79557881 1 1 1 Z " fill="#D1FBFC" transform="translate(21,65)"/>
<path d="M0 0 C1.66611905 -0.042721 3.33382885 -0.04063832 5 0 C6 1 6 1 6.09765625 2.84765625 C6.06510417 4.8984375 6.03255208 6.94921875 6 9 C3.69 9 1.38 9 -1 9 C-1.125 2.25 -1.125 2.25 0 0 Z " fill="#CBFAFA" transform="translate(45,75)"/>
<path d="M0 0 C0.33 1.32 0.66 2.64 1 4 C0.01 4 -0.98 4 -2 4 C-2 16.54 -2 29.08 -2 42 C-2.33 42 -2.66 42 -3 42 C-3 30.12 -3 18.24 -3 6 C-3.66 6 -4.32 6 -5 6 C-4.67 4.35 -4.34 2.7 -4 1 C-2.68 0.67 -1.36 0.34 0 0 Z " fill="#E2FDFD" transform="translate(80,58)"/>
<path d="M0 0 C1.9375 1.625 1.9375 1.625 3 4 C3.1875 7.25 3.1875 7.25 3 10 C2.01 10 1.02 10 0 10 C-0.33 7.36 -0.66 4.72 -1 2 C-3.47266765 2.34444881 -3.47266765 2.34444881 -6 3 C-6.33 3.66 -6.66 4.32 -7 5 C-7.99 4.67 -8.98 4.34 -10 4 C-9.67 3.01 -9.34 2.02 -9 1 C-5.9167365 -0.54163175 -3.39121901 -0.29747535 0 0 Z " fill="#41A0AA" transform="translate(70,73)"/>
<path d="M0 0 C2.31 0 4.62 0 7 0 C6.67 2.64 6.34 5.28 6 8 C3.03 7.505 3.03 7.505 0 7 C0 4.69 0 2.38 0 0 Z " fill="#F7FCFD" transform="translate(45,88)"/>
<path d="M0 0 C0.33 0 0.66 0 1 0 C1.33 7.26 1.66 14.52 2 22 C1.34 22 0.68 22 0 22 C0 14.74 0 7.48 0 0 Z M4 12 C4.66 12.33 5.32 12.66 6 13 C6 15.97 6 18.94 6 22 C4.68 21.67 3.36 21.34 2 21 C2.66 18.03 3.32 15.06 4 12 Z " fill="#CEF9FC" transform="translate(92,78)"/>
<path d="M0 0 C0.99 0 1.98 0 3 0 C4.1898306 2.3796612 4.13349966 3.91485735 4.125 6.5625 C4.12757812 7.36816406 4.13015625 8.17382812 4.1328125 9.00390625 C4 11 4 11 3 12 C1.33382885 12.04063832 -0.33388095 12.042721 -2 12 C-2.33 9.03 -2.66 6.06 -3 3 C-1 6 -1 6 -1 10 C-0.01 10 0.98 10 2 10 C1.34 6.7 0.68 3.4 0 0 Z " fill="#D0F6F6" transform="translate(33,90)"/>
<path d="M0 0 C2.01822917 0.06510417 4.03645833 0.13020833 6.0546875 0.1953125 C7.515316 2.84270166 8.0546875 4.08979584 8.0546875 7.1953125 C7.0646875 7.1953125 6.0746875 7.1953125 5.0546875 7.1953125 C4.8071875 6.5559375 4.5596875 5.9165625 4.3046875 5.2578125 C3.23906317 3.00789709 3.23906317 3.00789709 0.9296875 2.4453125 C0.0015625 2.3215625 0.0015625 2.3215625 -0.9453125 2.1953125 C-0.9453125 2.8553125 -0.9453125 3.5153125 -0.9453125 4.1953125 C-1.9353125 4.1953125 -2.9253125 4.1953125 -3.9453125 4.1953125 C-4.2753125 5.1853125 -4.6053125 6.1753125 -4.9453125 7.1953125 C-3.87057023 0.38861147 -3.87057023 0.38861147 0 0 Z " fill="#44A2A0" transform="translate(147.9453125,72.8046875)"/>
<path d="M0 0 C1.8871875 0.061875 1.8871875 0.061875 3.8125 0.125 C4.1425 1.115 4.4725 2.105 4.8125 3.125 C4.1525 3.125 3.4925 3.125 2.8125 3.125 C2.4825 3.785 2.1525 4.445 1.8125 5.125 C1.4825 4.465 1.1525 3.805 0.8125 3.125 C-0.8375 3.455 -2.4875 3.785 -4.1875 4.125 C-4.5175 5.445 -4.8475 6.765 -5.1875 8.125 C-6.1775 8.125 -7.1675 8.125 -8.1875 8.125 C-7.875 5.25 -7.875 5.25 -7.1875 2.125 C-4.09861478 0.06574319 -3.47814073 -0.1140374 0 0 Z " fill="#45A8A5" transform="translate(105.1875,72.875)"/>
<path d="M0 0 C0.33 0 0.66 0 1 0 C1.33 3.63 1.66 7.26 2 11 C2.66 11 3.32 11 4 11 C3.67 11.99 3.34 12.98 3 14 C2.34 14 1.68 14 1 14 C1 20.6 1 27.2 1 34 C0.67 34 0.34 34 0 34 C0 22.78 0 11.56 0 0 Z " fill="#27B7BE" transform="translate(79,64)"/>
<path d="M0 0 C2.625 -0.1875 2.625 -0.1875 5 0 C5.33 2.31 5.66 4.62 6 7 C5.34 6.01 4.68 5.02 4 4 C2.68 4 1.36 4 0 4 C-0.33 8.95 -0.66 13.9 -1 19 C-1.33 19 -1.66 19 -2 19 C-2.05394705 16.39555652 -2.09364469 13.79223002 -2.125 11.1875 C-2.14175781 10.44951172 -2.15851562 9.71152344 -2.17578125 8.95117188 C-2.21074628 5.08753574 -2.19397555 3.29096332 0 0 Z " fill="#BAF0F3" transform="translate(64,75)"/>
<path d="M0 0 C0.33 0 0.66 0 1 0 C1.33 2.64 1.66 5.28 2 8 C4.97 8.33 7.94 8.66 11 9 C10.67 10.32 10.34 11.64 10 13 C10 12.34 10 11.68 10 11 C6.7 11.66 3.4 12.32 0 13 C0 8.71 0 4.42 0 0 Z " fill="#C2F8F7" transform="translate(81,62)"/>
<path d="M0 0 C3.3 0 6.6 0 10 0 C10 1.32 10 2.64 10 4 C9.34 4 8.68 4 8 4 C8 3.01 8 2.02 8 1 C5.69 1 3.38 1 1 1 C1 3.31 1 5.62 1 8 C3.97 8.495 3.97 8.495 7 9 C7 9.66 7 10.32 7 11 C5.00045254 11.04254356 2.99958364 11.04080783 1 11 C0 10 0 10 -0.09765625 7.71484375 C-0.06510417 5.14322917 -0.03255208 2.57161458 0 0 Z " fill="#D3FDFD" transform="translate(44,87)"/>
<path d="M0 0 C0 2.64 0 5.28 0 8 C-0.69867188 8.13277344 -1.39734375 8.26554687 -2.1171875 8.40234375 C-3.02726563 8.57894531 -3.93734375 8.75554687 -4.875 8.9375 C-5.77992187 9.11152344 -6.68484375 9.28554687 -7.6171875 9.46484375 C-9.99956317 9.89963701 -9.99956317 9.89963701 -12 11 C-12 10.01 -12 9.02 -12 8 C-8.5980513 5.90649311 -5.94727588 5.82057837 -2 6 C-2.33 4.35 -2.66 2.7 -3 1 C-1 0 -1 0 0 0 Z " fill="#DAFBFC" transform="translate(132,65)"/>
<path d="M0 0 C0 0.66 0 1.32 0 2 C0.66 2 1.32 2 2 2 C2 5.63 2 9.26 2 13 C0.68 12.67 -0.64 12.34 -2 12 C-1.01 12 -0.02 12 1 12 C0.69181644 10.68647977 0.37832335 9.37420428 0.0625 8.0625 C-0.11152344 7.33160156 -0.28554687 6.60070312 -0.46484375 5.84765625 C-0.83887569 4.00030102 -0.83887569 4.00030102 -2 3 C-4.67058851 2.85884839 -7.32432238 2.95752893 -10 3 C-10 2.34 -10 1.68 -10 1 C-6.61981469 -0.04005702 -3.5219721 -0.08004482 0 0 Z " fill="#C9FAFB" transform="translate(72,71)"/>
<path d="M0 0 C2.64 0 5.28 0 8 0 C8 0.33 8 0.66 8 1 C6.35 1.33 4.7 1.66 3 2 C2.67 6.29 2.34 10.58 2 15 C1.34 15 0.68 15 0 15 C0 10.05 0 5.1 0 0 Z " fill="#2FAEAF" transform="translate(18,63)"/>
<path d="M0 0 C1.88500864 2.82751297 2.42317657 4.27652054 3.0625 7.5 C3.58700025 10.10082768 4.15796475 12.47389425 5 15 C3.0625 14.625 3.0625 14.625 1 14 C-0.38226016 11.23547967 -0.09525387 8.9538637 -0.0625 5.875 C-0.05347656 4.77929688 -0.04445312 3.68359375 -0.03515625 2.5546875 C-0.02355469 1.71164063 -0.01195312 0.86859375 0 0 Z " fill="#38A9A8" transform="translate(41,85)"/>
<path d="M0 0 C2.64 0 5.28 0 8 0 C8 1.32 8 2.64 8 4 C7.06027344 4.18175781 7.06027344 4.18175781 6.1015625 4.3671875 C5.28429687 4.53476563 4.46703125 4.70234375 3.625 4.875 C2.40683594 5.11863281 2.40683594 5.11863281 1.1640625 5.3671875 C-1.18673923 5.86658932 -1.18673923 5.86658932 -3 8 C-3 6.68 -3 5.36 -3 4 C-2.01 4 -1.02 4 0 4 C0 2.68 0 1.36 0 0 Z " fill="#D7FCFD" transform="translate(100,69)"/>
<path d="M0 0 C0.33 0.66 0.66 1.32 1 2 C0.50628906 2.30292969 0.01257813 2.60585937 -0.49609375 2.91796875 C-4.69897215 5.548514 -4.69897215 5.548514 -6.9375 9.8125 C-6.958125 10.534375 -6.97875 11.25625 -7 12 C-7.99 12.33 -8.98 12.66 -10 13 C-10.375 10.3125 -10.375 10.3125 -10 7 C-6.98001951 3.98001951 -3.94144164 1.667533 0 0 Z " fill="#3C9F9F" transform="translate(107,84)"/>
<path d="M0 0 C0 0.33 0 0.66 0 1 C-2.31 1.33 -4.62 1.66 -7 2 C-7.66 4.64 -8.32 7.28 -9 10 C-9.66 10 -10.32 10 -11 10 C-11.125 3.25 -11.125 3.25 -10 1 C-6.52674819 -0.1577506 -3.63932552 -0.06866652 0 0 Z " fill="#46A7A8" transform="translate(52,73)"/>
<path d="M0 0 C0.33 0 0.66 0 1 0 C1.18451025 11.52164009 1.18451025 11.52164009 0 17 C-0.33 17 -0.66 17 -1 17 C-1.22262606 14.91814549 -1.42757926 12.83439574 -1.625 10.75 C-1.74101563 9.58984375 -1.85703125 8.4296875 -1.9765625 7.234375 C-1.99955595 4.06127909 -1.69705154 2.61682756 0 0 Z " fill="#F6FDF4" transform="translate(75,65)"/>
<path d="M0 0 C0.33 0 0.66 0 1 0 C1 2.97 1 5.94 1 9 C-1.52475462 10.26237731 -3.31200466 10.09856404 -6.125 10.0625 C-7.03507812 10.05347656 -7.94515625 10.04445313 -8.8828125 10.03515625 C-9.58148438 10.02355469 -10.28015625 10.01195313 -11 10 C-11 9.34 -11 8.68 -11 8 C-8.03 8 -5.06 8 -2 8 C-1.34 5.36 -0.68 2.72 0 0 Z " fill="#DBFBFA" transform="translate(55,92)"/>
<path d="M0 0 C0.66 0 1.32 0 2 0 C2.268125 0.763125 2.53625 1.52625 2.8125 2.3125 C3.94424112 4.87380884 4.91223401 6.19692938 7 8 C6.67 8.66 6.34 9.32 6 10 C2.19118361 8.55527654 0.70257114 6.67396929 -1 3 C-0.67 2.01 -0.34 1.02 0 0 Z " fill="#2EAAA9" transform="translate(144,77)"/>
<path d="M0 0 C0.99 0 1.98 0 3 0 C3.33 0.66 3.66 1.32 4 2 C4.99 1.34 5.98 0.68 7 0 C7.99 0 8.98 0 10 0 C10 0.99 10 1.98 10 3 C7.09399739 4.25664978 5.20395416 5 2 5 C2 4.34 2 3.68 2 3 C1.34 3 0.68 3 0 3 C0 2.01 0 1.02 0 0 Z " fill="#4CA9A9" transform="translate(117,73)"/>
<path d="M0 0 C0.66 0.66 1.32 1.32 2 2 C2.66 1.67 3.32 1.34 4 1 C4 3.97 4 6.94 4 10 C3.01 10 2.02 10 1 10 C0.67 6.7 0.34 3.4 0 0 Z " fill="#E7FDFE" transform="translate(54,76)"/>
<path d="M0 0 C0.94875 0.350625 1.8975 0.70125 2.875 1.0625 C2.875 2.0525 2.875 3.0425 2.875 4.0625 C0.895 4.0625 -1.085 4.0625 -3.125 4.0625 C-3.785 2.7425 -4.445 1.4225 -5.125 0.0625 C-3.125 -0.9375 -3.125 -0.9375 0 0 Z " fill="#55B3B0" transform="translate(137.125,96.9375)"/>
<path d="M0 0 C2.475 0.495 2.475 0.495 5 1 C5 2.32 5 3.64 5 5 C3.35 5 1.7 5 0 5 C0 3.35 0 1.7 0 0 Z " fill="#F8F9FE" transform="translate(45,77)"/>
<path d="M0 0 C0.66 0.33 1.32 0.66 2 1 C2.4140625 3.72265625 2.4140625 3.72265625 2.625 7.0625 C2.69976562 8.16722656 2.77453125 9.27195312 2.8515625 10.41015625 C2.90054688 11.26480469 2.94953125 12.11945313 3 13 C2.34 13 1.68 13 1 13 C0.92652344 11.82630859 0.92652344 11.82630859 0.8515625 10.62890625 C0.77679688 9.61699219 0.70203125 8.60507813 0.625 7.5625 C0.55539063 6.55316406 0.48578125 5.54382813 0.4140625 4.50390625 C0.27742188 3.67761719 0.14078125 2.85132812 0 2 C-0.66 1.67 -1.32 1.34 -2 1 C-1.34 0.67 -0.68 0.34 0 0 Z " fill="#2DB2B4" transform="translate(108,85)"/>
<path d="M0 0 C0.33 0.99 0.66 1.98 1 3 C0.34 3.66 -0.32 4.32 -1 5 C-1.66 4.67 -2.32 4.34 -3 4 C-3 3.34 -3 2.68 -3 2 C-4.65 2.33 -6.3 2.66 -8 3 C-8 2.34 -8 1.68 -8 1 C-5.29120665 -0.35439668 -2.99066732 -0.06501451 0 0 Z " fill="#45AAA9" transform="translate(91,73)"/>
<path d="M0 0 C1.5 1 1.5 1 3 3 C3.27345479 5.71846235 3.13491285 8.25677199 3 11 C2.34 10.67 1.68 10.34 1 10 C0.33203125 7.96875 0.33203125 7.96875 -0.1875 5.5 C-0.36667969 4.6853125 -0.54585937 3.870625 -0.73046875 3.03125 C-0.81941406 2.3609375 -0.90835938 1.690625 -1 1 C-0.67 0.67 -0.34 0.34 0 0 Z " fill="#E4FCFE" transform="translate(155,72)"/>
<path d="M0 0 C0.33 0.66 0.66 1.32 1 2 C0.01 3.485 0.01 3.485 -1 5 C-0.6878236 7.64632287 -0.6878236 7.64632287 0 10 C-0.66 10 -1.32 10 -2 10 C-2.6875 6.6875 -2.6875 6.6875 -3 3 C-1.5625 1.0625 -1.5625 1.0625 0 0 Z " fill="#C7F5F5" transform="translate(103,88)"/>
<path d="M0 0 C1.32 0.33 2.64 0.66 4 1 C4 2.98 4 4.96 4 7 C3.01 7 2.02 7 1 7 C0.67 4.69 0.34 2.38 0 0 Z " fill="#3EAFAE" transform="translate(69,76)"/>
<path d="M0 0 C1.65 0 3.3 0 5 0 C2.11964908 2.24027294 -0.84866512 4.16172132 -4 6 C-4 4.68 -4 3.36 -4 2 C-2.68 2 -1.36 2 0 2 C0 1.34 0 0.68 0 0 Z " fill="#B8F1EF" transform="translate(102,84)"/>
<path d="M0 0 C0.99 0.495 0.99 0.495 2 1 C2.34153937 2.66500443 2.67449498 4.33178677 3 6 C3.66 6.66 4.32 7.32 5 8 C3.35 8 1.7 8 0 8 C0 5.36 0 2.72 0 0 Z " fill="#CAFEFE" transform="translate(135,65)"/>
<path d="M0 0 C0.66 0 1.32 0 2 0 C3.4606285 2.64738916 4 3.89448334 4 7 C3.01 7 2.02 7 1 7 C0.67 4.69 0.34 2.38 0 0 Z " fill="#5DB4BC" transform="translate(152,73)"/>
</svg>
